<?xml version="1.0" encoding="UTF-8"?>
<svg width="24px" height="24px" viewBox="0 0 24 24" version="1.1" xmlns="http://www.w3.org/2000/svg" xmlns:xlink="http://www.w3.org/1999/xlink">
    <!-- Generator: Sketch 50.2 (55047) - http://www.bohemiancoding.com/sketch -->
    <title>ic/search/gray</title>
    <desc>Created with Sketch.</desc>
    <defs></defs>
    <g id="ic/search/gray" stroke="none" stroke-width="1" fill="none" fill-rule="evenodd">
        <g id="search" transform="translate(2.000000, 2.000000)" fill="#CCCCCC" fill-rule="nonzero" stroke="#CCCCCC" stroke-width="0.7">
            <path d="M19.5109434,19.3483019 L13.9037736,13.5169811 C15.3339623,12.0826415 16.22,10.105283 16.22,7.9245283 C16.22,3.55471698 12.665283,0 8.2954717,0 C3.92566038,0 0.370943396,3.55471698 0.370943396,7.9245283 C0.370943396,12.2943396 3.92566038,15.8490566 8.2954717,15.8490566 C10.2135849,15.8490566 11.9739623,15.1633962 13.3460377,14.0256604 L18.9667925,19.8713208 C19.0407547,19.9486792 19.1396226,19.9871698 19.2388679,19.9871698 C19.3332075,19.9871698 19.4271698,19.9520755 19.5003774,19.8818868 C19.650566,19.7373585 19.6550943,19.4984906 19.5109434,19.3483019 Z M8.2954717,15.0943396 C4.34188679,15.0943396 1.12566038,11.8781132 1.12566038,7.9245283 C1.12566038,3.9709434 4.34188679,0.754716981 8.2954717,0.754716981 C12.2490566,0.754716981 15.465283,3.9709434 15.465283,7.9245283 C15.465283,11.8781132 12.2486792,15.0943396 8.2954717,15.0943396 Z" id="Shape"></path>
        </g>
    </g>
</svg>