<?xml version="1.0" encoding="UTF-8"?>
<svg width="80px" height="80px" viewBox="0 0 80 80" version="1.1" xmlns="http://www.w3.org/2000/svg" xmlns:xlink="http://www.w3.org/1999/xlink">
    <!-- Generator: Sketch 53.2 (72643) - https://sketchapp.com -->
    <title>003-startup</title>
    <desc>Created with Sketch.</desc>
    <g id="Design" stroke="none" stroke-width="1" fill="none" fill-rule="evenodd">
        <g id="Pricing" transform="translate(-1388.000000, -1161.000000)" fill="#904BF1" fill-rule="nonzero">
            <g id="pricing" transform="translate(352.000000, 916.000000)">
                <g id="white-4" transform="translate(0.000000, 132.000000)">
                    <g id="3" transform="translate(936.000000, 0.000000)">
                        <g id="003-startup" transform="translate(100.000000, 113.000000)">
                            <circle id="Oval" cx="1.571875" cy="78.0384375" r="1.571875"></circle>
                            <circle id="Oval" cx="41.7195313" cy="38.173125" r="1.56875"></circle>
                            <path d="M62.2623437,18.28625 C61.00125,17.025 59.3245312,16.330625 57.5410937,16.330625 C55.7576562,16.330625 54.0807812,17.0253125 52.8198437,18.28625 C50.2165625,20.8896875 50.2165625,25.125625 52.8198437,27.7289063 C54.1217187,29.030625 55.8310937,29.68125 57.5410937,29.68125 C59.250625,29.68125 60.9607812,29.0303125 62.2623437,27.7289063 C64.865625,25.1254688 64.865625,20.8895313 62.2623437,18.28625 Z M60.0440625,25.5103125 C58.6639062,26.8903125 56.418125,26.8903125 55.0382812,25.5103125 C53.658125,24.1303125 53.658125,21.8846875 55.0382812,20.5045312 C55.706875,19.8359375 56.595625,19.4678125 57.5410938,19.4678125 C58.4865625,19.4678125 59.3753125,19.8359375 60.0439063,20.5045312 C61.4240625,21.8846875 61.4240625,24.1303125 60.0440625,25.5103125 Z" id="Shape"></path>
                            <path d="M19.5951563,64.1328125 C18.8195313,63.7465625 17.8779688,64.0623438 17.4917188,64.8378125 L15.6232812,68.5901563 C14.8107813,70.2215625 13.1767187,71.3125 11.3582813,71.436875 L9.18515625,71.585625 C8.8178125,71.6101563 8.57625,71.4271875 8.46453125,71.3154688 C8.3528125,71.20375 8.169375,70.9617188 8.194375,70.5946875 L8.343125,68.4217188 C8.46765625,66.6034375 9.55859375,64.9692188 11.1898438,64.1567188 L14.9420312,62.2882813 C15.7176563,61.9020313 16.0332812,60.9603125 15.6470313,60.1848438 C15.2609375,59.409375 14.3192187,59.0935938 13.5435937,59.4798438 L9.79140625,61.3482813 C7.16765625,62.6548438 5.41328125,65.2829688 5.21296875,68.2073438 L5.06421875,70.3803125 C4.98390625,71.5532813 5.41453125,72.7026563 6.24578125,73.5339063 C7.01109375,74.2992188 8.04625,74.7251563 9.12125,74.7251563 C9.21359375,74.7251563 9.3065625,74.7220313 9.399375,74.715625 L11.5725,74.566875 C14.496875,74.3667188 17.125,72.6125 18.4315625,69.9884375 L20.3,66.23625 C20.68625,65.460625 20.370625,64.5190625 19.5951563,64.1328125 Z" id="Shape"></path>
                            <path d="M78.9171875,1.121875 C78.1810938,0.39671875 77.1670313,0.0175 76.1370313,0.08453125 L74.6764063,0.17765625 C61.5796875,1.01375 49.3229688,7.33546875 41.0490625,17.5220313 L37.6109375,21.7546875 L28.6135938,21.4904687 C28.5982813,21.49 28.5828125,21.4898437 28.5676563,21.4898437 C21.4320313,21.4898437 14.7234375,24.2685938 9.67765625,29.3142188 L0.46234375,38.5296875 C0.0240625,38.9679688 -0.11515625,39.6234375 0.10734375,40.201875 C0.32984375,40.7804688 0.87203125,41.1739063 1.49109375,41.2054688 L20.9979688,42.2076563 L20.2026563,43.186875 C19.801875,43.6804688 19.7384375,44.3670313 20.0423438,44.9254688 C20.3479687,45.4873438 20.6682812,46.0403125 21.0023438,46.584375 L16.3764063,52.0760938 C15.9809375,52.545625 15.8957813,53.2028125 16.158125,53.7578125 C17.1685938,55.8929688 18.5096875,57.8114063 20.1446875,59.4598438 C21.819375,61.1485938 23.7776562,62.5295313 25.9648438,63.5646875 C26.1785938,63.6659375 26.4078125,63.7154687 26.635625,63.7154687 C26.9889062,63.7154687 27.3392188,63.5960937 27.6242188,63.365 C28.6207813,62.5565625 29.7696875,61.5976563 30.8809375,60.6704688 C31.6729687,60.0095313 32.4832813,59.3334375 33.240625,58.71 C33.6926562,58.9820312 34.1503125,59.2457812 34.6148437,59.4984375 C34.8498437,59.62625 35.1075,59.6892187 35.3642187,59.6892187 C35.7057813,59.6892187 36.0451562,59.5779687 36.3260937,59.3598437 L37.3953125,58.5301562 L38.401875,78.1192187 C38.43375,78.7382812 38.8270313,79.2804687 39.4054687,79.5029687 C39.5885938,79.5732812 39.7789062,79.6076562 39.9679687,79.6076562 C40.3765625,79.6076562 40.7778125,79.4478125 41.0775,79.1479687 L50.2929688,69.9325 C55.33875,64.8867188 58.1173438,58.1782812 58.1173438,51.0425 L58.1173438,42.4495312 L61.7528125,39.6284375 C72.6479688,31.17375 79.2834375,18.4246875 79.9578125,4.65 L79.9951563,3.8865625 C80.0460938,2.8546875 79.6529688,1.8471875 78.9171875,1.121875 Z M5.17546875,38.2534375 L11.8960938,31.5328125 C16.34375,27.0851562 22.2559375,24.6332813 28.545,24.6271875 L35.1207813,24.8203125 L23.4473438,39.1921875 L5.17546875,38.2534375 Z M28.8709375,58.2615625 C28.0520313,58.9446875 27.2125,59.6453125 26.4334375,60.2860937 C24.9265625,59.47 23.5634375,58.4517187 22.3721875,57.2504687 C21.2184375,56.0871875 20.2364063,54.7626562 19.4445313,53.3035937 L22.8314063,49.2828125 C23.8554688,50.6567188 24.9764063,51.958125 26.1873438,53.1773437 C26.1882813,53.1782812 26.1892188,53.1790625 26.1901563,53.18 C26.1904688,53.1803125 26.1907813,53.1807813 26.1910938,53.1810938 C26.1915625,53.1815625 26.1920313,53.181875 26.1925,53.1823438 C27.5351563,54.5335938 28.979375,55.7735937 30.5114063,56.895 C29.9704688,57.3440625 29.41625,57.8065625 28.8709375,58.2615625 Z M54.9804688,51.0425 C54.9804688,57.3401563 52.528125,63.2607813 48.0748438,67.7140625 L41.3542188,74.4346875 L40.4164063,56.1859375 L54.9803125,44.884375 L54.9803125,51.0425 L54.9804688,51.0425 Z M76.8246875,4.49671875 C76.1951563,17.355625 70.0007813,29.2571875 59.8298438,37.1498438 L35.2267188,56.241875 C33.1864063,55.0496875 31.2846875,53.6420313 29.5442188,52.0471875 L37.8389063,43.7525 C38.4514062,43.14 38.4514062,42.1465625 37.8389063,41.5339063 C37.22625,40.92125 36.2329688,40.92125 35.6203125,41.5339063 L27.3334375,49.8207813 C25.8098437,48.1340625 24.4604687,46.29875 23.3115625,44.3357813 L43.484375,19.5 C51.208125,9.99078125 62.65,4.08921875 74.8760938,3.30890625 L76.3367188,3.21578125 C76.528125,3.20390625 76.65625,3.29890625 76.7153125,3.35703125 C76.7742188,3.415 76.8715625,3.54109375 76.8621875,3.7334375 L76.8246875,4.49671875 Z" id="Shape"></path>
                        </g>
                    </g>
                </g>
            </g>
        </g>
    </g>
</svg>