<?xml version="1.0" encoding="UTF-8"?>
<svg width="24px" height="24px" viewBox="0 0 24 24" version="1.1" xmlns="http://www.w3.org/2000/svg" xmlns:xlink="http://www.w3.org/1999/xlink">
    <!-- Generator: Sketch 50.2 (55047) - http://www.bohemiancoding.com/sketch -->
    <title>ic/calendar</title>
    <desc>Created with Sketch.</desc>
    <defs></defs>
    <g id="ic/calendar" stroke="none" stroke-width="1" fill="none" fill-rule="evenodd">
        <g id="001-event" transform="translate(2.000000, 2.000000)" fill="#FFCB28" fill-rule="nonzero" stroke="#FFCB28" stroke-width="0.2">
            <path d="M18.3333203,11.8839063 L18.3333203,3.33332031 C18.3333203,2.41414062 17.5858594,1.66664062 16.6666406,1.66664062 L14.1666406,1.66664062 L14.1666406,0.416640625 C14.1666797,0.186367188 13.9803125,0 13.75,0 C13.5196875,0 13.3333203,0.186367188 13.3333203,0.416679688 L13.3333203,1.66667969 L5.83332031,1.66667969 L5.83332031,0.416679688 C5.83332031,0.186367188 5.64699219,0 5.41667969,0 C5.18636719,0 5,0.186367188 5,0.416679688 L5,1.66667969 L1.66667969,1.66667969 C0.747460938,1.66667969 0,2.41414062 0,3.33332031 L0,16.6666406 C0,17.5858203 0.747460938,18.3333203 1.66667969,18.3333203 L11.8839062,18.3333203 C12.7252734,19.350625 13.9964844,20 15.4166797,20 C17.9439453,20 20,17.9439453 20,15.4166797 C20,13.9964844 19.350625,12.7252734 18.3333203,11.8839063 Z M0.833320312,3.33332031 C0.833320312,2.87394531 1.20726562,2.5 1.66667969,2.5 L5,2.5 L5,3.33332031 C4.54019531,3.33332031 4.16667969,3.70726563 4.16667969,4.16664063 C4.16667969,4.62601562 4.54023437,4.99996094 5,4.99996094 C5.45976562,4.99996094 5.83332031,4.62601562 5.83332031,4.16664063 L5.83332031,2.5 L13.3333203,2.5 L13.3333203,3.33332031 C12.8735156,3.33332031 12.5,3.70726563 12.5,4.16664063 C12.5,4.62601562 12.8735547,4.99996094 13.3333203,4.99996094 C13.793125,4.99996094 14.1666406,4.62601562 14.1666406,4.16664063 L14.1666406,2.5 L16.6666406,2.5 C17.1260547,2.5 17.5,2.87394531 17.5,3.33332031 L17.5,5.83332031 L0.833320312,5.83332031 L0.833320312,3.33332031 Z M1.66667969,17.5 C1.20730469,17.5 0.833359375,17.1260547 0.833359375,16.6666797 L0.833359375,6.66667969 L17.5,6.66667969 L17.5,11.3393359 C16.8741016,11.0182422 16.1671484,10.8333594 15.4166797,10.8333594 C12.8894141,10.8333594 10.8333594,12.8894141 10.8333594,15.4166797 C10.8333594,16.1671484 11.0182422,16.8741016 11.3393359,17.5 L1.66667969,17.5 Z M15.4166797,19.1666797 C13.3487891,19.1666797 11.6666797,17.4845313 11.6666797,15.4166797 C11.6666797,13.3488281 13.3488281,11.6666797 15.4166797,11.6666797 C17.4845313,11.6666797 19.1666797,13.3488281 19.1666797,15.4166797 C19.1666797,17.4845313 17.4845313,19.1666797 15.4166797,19.1666797 Z" id="Shape"></path>
            <path d="M17.2053906,13.8720703 L14.5833203,16.4941406 L13.6279297,15.53875 C13.4651563,15.3759766 13.2014844,15.3759766 13.03875,15.53875 C12.8759766,15.7015234 12.8759766,15.9651953 13.03875,16.1279297 L14.28875,17.3779297 C14.3701172,17.4592969 14.4767578,17.5 14.5833594,17.5 C14.6899609,17.5 14.7965625,17.4592969 14.8779688,17.3779297 L17.7946484,14.46125 C17.9574219,14.2984766 17.9574219,14.0348047 17.7946484,13.8720703 C17.6318359,13.7092969 17.3681641,13.7092969 17.2053906,13.8720703 Z" id="Shape"></path>
        </g>
    </g>
</svg>