<?xml version="1.0" encoding="UTF-8"?>
<svg width="16px" height="16px" viewBox="0 0 16 16" version="1.1" xmlns="http://www.w3.org/2000/svg" xmlns:xlink="http://www.w3.org/1999/xlink">
    <!-- Generator: Sketch 50.2 (55047) - http://www.bohemiancoding.com/sketch -->
    <title>ic/arrow/right 2</title>
    <desc>Created with Sketch.</desc>
    <defs></defs>
    <g id="Design" stroke="none" stroke-width="1" fill="none" fill-rule="evenodd">
        <g id="Resources" transform="translate(-608.000000, -796.000000)" fill="#FFFFFF" stroke="#FFFFFF">
            <g id="1" transform="translate(352.000000, 222.000000)">
                <g id="card-1" transform="translate(0.000000, 250.000000)">
                    <g id="btn" transform="translate(80.000000, 312.000000)">
                        <g id="Group-2" transform="translate(23.000000, 11.000000)">
                            <g id="ic/download" transform="translate(152.000000, 0.000000)">
                                <g id="download-arrow(1)" transform="translate(1.500000, 1.500000)">
                                    <path d="M11.2807143,7.78571429 C11.4392857,7.62714286 11.4392857,7.3775 11.2807143,7.21892857 C11.1275,7.06035714 10.8725,7.06035714 10.7196429,7.21892857 L7.84571429,10.0875 L7.84571429,0.609285714 C7.84571429,0.388214286 7.67,0.206785714 7.44892857,0.206785714 C7.22785714,0.206785714 7.04642857,0.388214286 7.04642857,0.609285714 L7.04642857,10.0875 L4.17821429,7.21892857 C4.01964286,7.06035714 3.76428571,7.06035714 3.61142857,7.21892857 C3.45285714,7.3775 3.45285714,7.62714286 3.61142857,7.78571429 L7.16571429,11.34 C7.31892857,11.4932143 7.57392857,11.4932143 7.7325,11.34 L11.2807143,7.78571429 Z M14.0978571,10.3878571 C14.0978571,10.1667857 14.2735714,9.99107143 14.4946429,9.99107143 C14.7157143,9.99107143 14.8971429,10.1667857 14.8971429,10.3878571 L14.8971429,14.2878571 C14.8971429,14.5089286 14.7157143,14.6903571 14.4946429,14.6903571 L0.396785714,14.6903571 C0.175714286,14.6903571 0,14.5089286 0,14.2878571 L0,10.3878571 C0,10.1667857 0.175714286,9.99107143 0.396785714,9.99107143 C0.617857143,9.99107143 0.799285714,10.1667857 0.799285714,10.3878571 L0.799285714,13.8910714 L14.0978571,13.8910714 L14.0978571,10.3878571 Z" id="Shape" stroke-width="0.3" fill-rule="nonzero"></path>
                                </g>
                            </g>
                        </g>
                    </g>
                </g>
            </g>
        </g>
    </g>
</svg>