<?xml version="1.0" encoding="UTF-8"?>
<svg width="93px" height="80px" viewBox="0 0 93 80" version="1.1" xmlns="http://www.w3.org/2000/svg" xmlns:xlink="http://www.w3.org/1999/xlink">
    <!-- Generator: Sketch 50.2 (55047) - http://www.bohemiancoding.com/sketch -->
    <title>008-transfer</title>
    <desc>Created with Sketch.</desc>
    <defs></defs>
    <g id="Design" stroke="none" stroke-width="1" fill="none" fill-rule="evenodd">
        <g id="Product" transform="translate(-1390.000000, -3584.000000)" fill-rule="nonzero">
            <g id="4.1-new" transform="translate(352.000000, 2966.000000)">
                <g id="8" transform="translate(952.000000, 570.000000)">
                    <g id="008-transfer" transform="translate(86.000000, 48.000000)">
                        <path d="M17.0377358,12.0671698 C16.3207547,12.8030189 16.3207547,13.9916981 17.0754717,14.7086792 C17.8113208,15.4256604 19,15.4256604 19.7169811,14.6709434 C26.4716981,7.74641509 35.5283019,3.87849057 45.1886792,3.76528302 C54.6226415,3.65207547 63.5660377,7.16150943 70.4150943,13.6143396 L66.9811321,13.6520755 C65.9433962,13.6709434 65.1320755,14.5011321 65.1320755,15.5388679 C65.1509434,16.5577358 65.9811321,17.3879245 67,17.3879245 L67.0188679,17.3879245 L74.9811321,17.2935849 C76.0188679,17.274717 76.8301887,16.4445283 76.8301887,15.4067925 L76.754717,7.46339623 C76.7358491,6.4445283 75.9056604,5.61433962 74.8867925,5.61433962 L74.8679245,5.61433962 C73.8301887,5.63320755 73.0188679,6.46339623 73.0188679,7.50113208 L73.0566038,10.9728302 C65.490566,3.80301887 55.5849057,-0.0837735849 45.1509434,0.0294339623 C34.4716981,0.180377358 24.490566,4.4445283 17.0377358,12.0671698 Z" id="Shape" fill="#FFCB28"></path>
                        <path d="M71.490566,65.2935849 C64.7358491,72.2181132 55.6792453,76.0860377 46.0188679,76.1992453 C36.5849057,76.3124528 27.6415094,72.8030189 20.7924528,66.3501887 L24.2264151,66.3124528 C25.2641509,66.2935849 26.0754717,65.4633962 26.0754717,64.4256604 C26.0566038,63.4067925 25.2264151,62.5766038 24.2075472,62.5766038 L24.1886792,62.5766038 L16.2264151,62.6709434 C15.1886792,62.6898113 14.3773585,63.52 14.3773585,64.5577358 L14.4716981,72.52 C14.490566,73.5388679 15.3207547,74.3690566 16.3396226,74.3690566 L16.3584906,74.3690566 C17.3962264,74.3501887 18.2075472,73.52 18.2075472,72.4822642 L18.1698113,69.010566 C25.6226415,76.0671698 35.3207547,79.9539623 45.6037736,79.9539623 C45.754717,79.9539623 45.9245283,79.9539623 46.0754717,79.9539623 C56.7358491,79.8218868 66.7358491,75.5577358 74.1886792,67.9350943 C74.9056604,67.1992453 74.9056604,66.010566 74.1509434,65.2935849 C73.3962264,64.5388679 72.2264151,64.5577358 71.490566,65.2935849 Z" id="Shape" fill="#FFCB28"></path>
                        <path d="M14.754717,39.1049057 C14.754717,38.4822642 14.4339623,37.8973585 13.9245283,37.5577358 C13.5849057,37.3313208 13.3962264,36.9539623 13.3962264,36.5577358 L13.3962264,29.7464151 C13.3962264,27.3879245 15.3018868,25.4822642 17.6603774,25.4822642 L19.1320755,25.4822642 C21.490566,25.4822642 23.3962264,27.3879245 23.3962264,29.7464151 L23.3962264,36.5577358 C23.3962264,36.9539623 23.1886792,37.3313208 22.8679245,37.5577358 C22.3396226,37.8973585 22.0377358,38.4822642 22.0377358,39.1049057 L22.0377358,45.6709434 C22.0377358,46.5011321 22.509434,47.2558491 23.2641509,47.6143396 C24.1132075,48.029434 28.509434,50.2558491 32.5849057,53.5954717 C32.9056604,53.8596226 33.0943396,54.274717 33.0943396,54.7086792 L33.0943396,59.3690566 C33.0943396,60.4067925 33.9245283,61.2369811 34.9622642,61.2369811 C36,61.2369811 36.8301887,60.4067925 36.8301887,59.3690566 L36.8301887,54.7086792 C36.8301887,53.1615094 36.1509434,51.7086792 34.9433962,50.7086792 C31.3773585,47.765283 27.5471698,45.6332075 25.7735849,44.7086792 L25.7735849,39.9728302 C26.6415094,39.0671698 27.1509434,37.8407547 27.1509434,36.5577358 L27.1509434,29.7464151 C27.1509434,25.3313208 23.5660377,21.7464151 19.1509434,21.7464151 L17.6792453,21.7464151 C13.2641509,21.7464151 9.67924528,25.3313208 9.67924528,29.7464151 L9.67924528,36.5577358 C9.67924528,37.8407547 10.1698113,39.0671698 11.0566038,39.9728302 L11.0566038,44.7086792 C9.26415094,45.6332075 5.45283019,47.7841509 1.88679245,50.7086792 C0.698113208,51.6898113 0,53.1426415 0,54.7086792 L0,59.3690566 C0,60.4067925 0.830188679,61.2369811 1.86792453,61.2369811 C2.90566038,61.2369811 3.73584906,60.4067925 3.73584906,59.3690566 L3.73584906,54.7086792 C3.73584906,54.274717 3.9245283,53.8784906 4.24528302,53.5954717 C8.30188679,50.2558491 12.7169811,48.029434 13.5660377,47.6143396 C14.3018868,47.2558491 14.7924528,46.4822642 14.7924528,45.6709434 L14.7924528,39.1049057 L14.754717,39.1049057 Z" id="Shape" fill="#6D7882"></path>
                        <path d="M90.5471698,50.7275472 C86.9811321,47.7841509 83.1509434,45.6520755 81.3773585,44.7275472 L81.3773585,39.9916981 C82.245283,39.0860377 82.754717,37.8596226 82.754717,36.5766038 L82.754717,29.765283 C82.754717,25.3501887 79.1698113,21.765283 74.754717,21.765283 L73.2830189,21.765283 C68.8679245,21.765283 65.2830189,25.3501887 65.2830189,29.765283 L65.2830189,36.5766038 C65.2830189,37.8596226 65.7735849,39.0860377 66.6603774,39.9916981 L66.6603774,44.7086792 C64.8679245,45.6332075 61.0566038,47.7841509 57.490566,50.7086792 C56.3018868,51.6898113 55.6037736,53.1426415 55.6037736,54.7086792 L55.6037736,59.3690566 C55.6037736,60.4067925 56.4339623,61.2369811 57.4716981,61.2369811 C58.509434,61.2369811 59.3396226,60.4067925 59.3396226,59.3690566 L59.3396226,54.7086792 C59.3396226,54.274717 59.5283019,53.8784906 59.8490566,53.5954717 C63.9056604,50.2558491 68.3207547,48.029434 69.1698113,47.6143396 C69.9056604,47.2558491 70.3773585,46.4822642 70.3773585,45.6709434 L70.3773585,39.1049057 C70.3773585,38.4822642 70.0566038,37.8973585 69.5471698,37.5577358 C69.2075472,37.3313208 69.0188679,36.9539623 69.0188679,36.5577358 L69.0188679,29.7464151 C69.0188679,27.3879245 70.9245283,25.4822642 73.2830189,25.4822642 L74.754717,25.4822642 C77.1132075,25.4822642 79.0188679,27.3879245 79.0188679,29.7464151 L79.0188679,36.5577358 C79.0188679,36.9539623 78.8113208,37.3313208 78.490566,37.5577358 C77.9622642,37.8973585 77.6603774,38.4822642 77.6603774,39.1049057 L77.6603774,45.6709434 C77.6603774,46.5011321 78.1320755,47.2558491 78.8679245,47.6143396 C79.7169811,48.029434 84.1320755,50.2558491 88.1886792,53.5954717 C88.509434,53.8596226 88.6981132,54.274717 88.6981132,54.7086792 L88.6981132,59.3690566 C88.6981132,60.4067925 89.5283019,61.2369811 90.5660377,61.2369811 C91.6037736,61.2369811 92.4339623,60.4067925 92.4339623,59.3690566 L92.4339623,54.7086792 C92.4150943,53.1615094 91.7358491,51.7086792 90.5471698,50.7275472 Z" id="Shape" fill="#6D7882"></path>
                    </g>
                </g>
            </g>
        </g>
    </g>
</svg>