<?xml version="1.0" encoding="UTF-8"?>
<svg width="91px" height="80px" viewBox="0 0 91 80" version="1.1" xmlns="http://www.w3.org/2000/svg" xmlns:xlink="http://www.w3.org/1999/xlink">
    <!-- Generator: Sketch 50.2 (55047) - http://www.bohemiancoding.com/sketch -->
    <title>004-group</title>
    <desc>Created with Sketch.</desc>
    <defs></defs>
    <g id="Design" stroke="none" stroke-width="1" fill="none" fill-rule="evenodd">
        <g id="Product" transform="translate(-1391.000000, -3168.000000)" fill-rule="nonzero">
            <g id="4.1-new" transform="translate(352.000000, 2966.000000)">
                <g id="4" transform="translate(952.000000, 154.000000)">
                    <g id="004-group" transform="translate(87.000000, 48.000000)">
                        <path d="M59.3917051,32.0184332 L59.3917051,36.5345622 C59.3917051,37.5483871 60.202765,38.359447 61.2165899,38.359447 C62.2304147,38.359447 63.0414747,37.5483871 63.0414747,36.5345622 L63.0414747,32.0184332 C63.0414747,30.5069124 62.3778802,29.0875576 61.2165899,28.1474654 C57.7511521,25.3087558 54.0645161,23.2442396 52.3317972,22.3410138 L52.3317972,17.7511521 C53.1797235,16.8663594 53.6589862,15.6866359 53.6589862,14.4331797 L53.6589862,7.83410138 C53.6589862,3.55760369 50.1751152,0.0737327189 45.8986175,0.0737327189 L44.4792627,0.0737327189 C40.202765,0.0737327189 36.718894,3.55760369 36.718894,7.83410138 L36.718894,14.4331797 C36.718894,15.6866359 37.1981567,16.8663594 38.0460829,17.7511521 L38.0460829,22.3225806 C36.3133641,23.2258065 32.6267281,25.2903226 29.1612903,28.1290323 C28,29.0875576 27.3364055,30.4884793 27.3364055,32 L27.3364055,36.516129 C27.3364055,37.5299539 28.1474654,38.3410138 29.1612903,38.3410138 C30.1751152,38.3410138 30.9861751,37.5299539 30.9861751,36.516129 L30.9861751,32 C30.9861751,31.59447 31.1705069,31.2073733 31.483871,30.9493088 C35.4285714,27.7050691 39.6866359,25.5483871 40.516129,25.1612903 C41.235023,24.8110599 41.6958525,24.0552995 41.6958525,23.2626728 L41.6958525,16.9032258 C41.6958525,16.2949309 41.3824885,15.7235023 40.8847926,15.3917051 C40.5714286,15.1705069 40.3686636,14.8202765 40.3686636,14.4331797 L40.3686636,7.83410138 C40.3686636,5.56682028 42.2119816,3.7235023 44.4792627,3.7235023 L45.8986175,3.7235023 C48.1658986,3.7235023 50.0092166,5.56682028 50.0092166,7.83410138 L50.0092166,14.4331797 C50.0092166,14.8202765 49.8248848,15.1705069 49.4930876,15.3917051 C48.9769585,15.7235023 48.6820276,16.2949309 48.6820276,16.9032258 L48.6820276,23.2626728 C48.6820276,24.0737327 49.1428571,24.8110599 49.8617512,25.1612903 C50.6728111,25.5668203 54.9493088,27.7050691 58.8940092,30.9493088 C59.2073733,31.2073733 59.3917051,31.59447 59.3917051,32.0184332 Z" id="Shape" fill="#6D7882"></path>
                        <path d="M76.8110599,56.9953917 C76.2949309,57.3271889 76,57.8986175 76,58.5069124 L76,64.8663594 C76,65.6774194 76.4608295,66.4147465 77.1797235,66.764977 C77.9907834,67.1705069 82.2672811,69.3271889 86.2119816,72.5529954 C86.5253456,72.8110599 86.7096774,73.1981567 86.7096774,73.6036866 L86.7096774,78.1198157 C86.7096774,79.1336406 87.5207373,79.9447005 88.5345622,79.9447005 C89.5483871,79.9447005 90.359447,79.1336406 90.359447,78.1198157 L90.359447,73.6036866 C90.359447,72.0921659 89.6958525,70.6728111 88.5345622,69.7327189 C85.0691244,66.8940092 81.3824885,64.8294931 79.6497696,63.9262673 L79.6497696,59.3364055 C80.4976959,58.4516129 80.9769585,57.2718894 80.9769585,56.0184332 L80.9769585,49.4193548 C80.9769585,45.1428571 77.4930876,41.6589862 73.2165899,41.6589862 L71.797235,41.6589862 C67.5207373,41.6589862 64.0368664,45.1428571 64.0368664,49.4193548 L64.0368664,56.0184332 C64.0368664,57.2718894 64.516129,58.4516129 65.3640553,59.3364055 L65.3640553,63.9262673 C63.6313364,64.8294931 59.9447005,66.8940092 56.4792627,69.7327189 C55.3179724,70.6912442 54.6543779,72.1105991 54.6543779,73.6036866 L54.6543779,78.1198157 C54.6543779,79.1336406 55.4654378,79.9447005 56.4792627,79.9447005 C57.4930876,79.9447005 58.3041475,79.1336406 58.3041475,78.1198157 L58.3041475,73.6036866 C58.3041475,73.1981567 58.4884793,72.8110599 58.8018433,72.5529954 C62.7465438,69.3087558 67.0046083,67.1520737 67.8341014,66.764977 C68.5529954,66.4147465 69.0138249,65.6589862 69.0138249,64.8663594 L69.0138249,58.5069124 C69.0138249,57.8986175 68.7004608,57.3271889 68.202765,56.9953917 C67.8894009,56.7741935 67.6866359,56.4239631 67.6866359,56.0368664 L67.6866359,49.437788 C67.6866359,47.1705069 69.5299539,45.3271889 71.797235,45.3271889 L73.2165899,45.3271889 C75.483871,45.3271889 77.3271889,47.1705069 77.3271889,49.437788 L77.3271889,56.0368664 C77.3271889,56.4239631 77.1428571,56.7741935 76.8110599,56.9953917 Z" id="Shape" fill="#6D7882"></path>
                        <path d="M32.0552995,73.6221198 L32.0552995,78.1382488 C32.0552995,79.1520737 32.8663594,79.9631336 33.8801843,79.9631336 C34.8940092,79.9631336 35.7050691,79.1520737 35.7050691,78.1382488 L35.7050691,73.6221198 C35.7050691,72.1105991 35.0414747,70.6912442 33.8801843,69.7511521 C30.4147465,66.9124424 26.7281106,64.8479263 24.9953917,63.9447005 L24.9953917,59.3548387 C25.843318,58.4700461 26.3225806,57.2903226 26.3225806,56.0368664 L26.3225806,49.437788 C26.3225806,45.1612903 22.8387097,41.6774194 18.562212,41.6774194 L17.1428571,41.6774194 C12.8663594,41.6774194 9.38248848,45.1612903 9.38248848,49.437788 L9.38248848,56.0368664 C9.38248848,57.2903226 9.86175115,58.4700461 10.7096774,59.3548387 L10.7096774,63.9447005 C8.97695853,64.8479263 5.29032258,66.9124424 1.82488479,69.7511521 C0.66359447,70.7096774 0,72.1105991 0,73.6221198 L0,78.1382488 C0,79.1520737 0.811059908,79.9631336 1.82488479,79.9631336 C2.83870968,79.9631336 3.64976959,79.1520737 3.64976959,78.1382488 L3.64976959,73.6221198 C3.64976959,73.2165899 3.83410138,72.8294931 4.14746544,72.5714286 C8.0921659,69.3271889 12.3502304,67.1705069 13.1797235,66.7834101 C13.9170507,66.4331797 14.359447,65.6958525 14.359447,64.8847926 L14.359447,58.5253456 C14.359447,57.9170507 14.0460829,57.3456221 13.5483871,57.0138249 C13.235023,56.7926267 13.0322581,56.4423963 13.0322581,56.0552995 L13.0322581,49.4562212 C13.0322581,47.1889401 14.875576,45.3456221 17.1428571,45.3456221 L18.562212,45.3456221 C20.8294931,45.3456221 22.6728111,47.1889401 22.6728111,49.4562212 L22.6728111,56.0552995 C22.6728111,56.4423963 22.4884793,56.7926267 22.156682,57.0138249 C21.640553,57.3456221 21.3456221,57.9170507 21.3456221,58.5253456 L21.3456221,64.8847926 C21.3456221,65.6958525 21.8064516,66.4331797 22.5253456,66.7834101 C23.3364055,67.1889401 27.6129032,69.3271889 31.5576037,72.5714286 C31.8709677,72.8294931 32.0552995,73.1981567 32.0552995,73.6221198 Z" id="Shape" fill="#6D7882"></path>
                        <path d="M45.1797235,64.6267281 C46.1935484,64.6267281 47.0046083,63.8156682 47.0046083,62.8018433 L47.0046083,60.3502304 L47.2073733,60.3502304 C50.6543779,60.3502304 53.4746544,57.5483871 53.4746544,54.0829493 C53.4746544,50.6175115 50.6728111,47.8156682 47.2073733,47.8156682 L43.1520737,47.8156682 C41.7142857,47.8156682 40.5345622,46.6359447 40.5345622,45.1981567 C40.5345622,43.7603687 41.7142857,42.5990783 43.1520737,42.5990783 L50.2857143,42.5990783 C51.2995392,42.5990783 52.1105991,41.7880184 52.1105991,40.7741935 C52.1105991,39.7603687 51.2995392,38.9493088 50.2857143,38.9493088 L46.9861751,38.9493088 L46.9861751,36.5345622 C46.9861751,35.5207373 46.1751152,34.7096774 45.1612903,34.7096774 C44.1474654,34.7096774 43.3364055,35.5207373 43.3364055,36.5345622 L43.3364055,38.9493088 L43.1520737,38.9493088 C39.7050691,38.9493088 36.8847926,41.7511521 36.8847926,45.2165899 C36.8847926,48.6635945 39.6866359,51.483871 43.1520737,51.483871 L47.2073733,51.483871 C48.6451613,51.483871 49.8248848,52.6635945 49.8248848,54.1013825 C49.8248848,55.5391705 48.6451613,56.718894 47.2073733,56.718894 L39.9262673,56.718894 C38.9124424,56.718894 38.1013825,57.5299539 38.1013825,58.5437788 C38.1013825,59.5576037 38.9124424,60.3686636 39.9262673,60.3686636 L43.3548387,60.3686636 L43.3548387,62.8202765 C43.3548387,63.8156682 44.1658986,64.6267281 45.1797235,64.6267281 Z" id="Shape" fill="#FFCB28"></path>
                    </g>
                </g>
            </g>
        </g>
    </g>
</svg>