<?xml version="1.0" encoding="UTF-8"?>
<svg width="91px" height="80px" viewBox="0 0 91 80" version="1.1" xmlns="http://www.w3.org/2000/svg" xmlns:xlink="http://www.w3.org/1999/xlink">
    <!-- Generator: Sketch 50.2 (55047) - http://www.bohemiancoding.com/sketch -->
    <title>007-teamwork</title>
    <desc>Created with Sketch.</desc>
    <defs></defs>
    <g id="Design" stroke="none" stroke-width="1" fill="none" fill-rule="evenodd">
        <g id="Product" transform="translate(-1111.000000, -3576.000000)" fill-rule="nonzero">
            <g id="4.1-new" transform="translate(352.000000, 2966.000000)">
                <g id="7" transform="translate(672.000000, 570.000000)">
                    <g id="007-teamwork" transform="translate(87.000000, 40.000000)">
                        <path d="M45.3087558,56.7281106 C46.8018433,56.7281106 48.1658986,56.156682 49.1981567,55.235023 L55.9262673,59.124424 C56.2211982,59.2903226 56.5345622,59.3640553 56.8294931,59.3640553 C57.4562212,59.3640553 58.0829493,59.0322581 58.4147465,58.4423963 C58.9124424,57.5760369 58.6175115,56.4516129 57.7511521,55.9539171 L51.0414747,52.0829493 C51.1152074,51.6958525 51.1705069,51.2903226 51.1705069,50.8847926 C51.1705069,48.3041475 49.4746544,46.0921659 47.1520737,45.3364055 L47.1520737,37.5760369 C47.1520737,36.562212 46.3410138,35.7511521 45.3271889,35.7511521 C44.3133641,35.7511521 43.5023041,36.562212 43.5023041,37.5760369 L43.5023041,45.3364055 C41.1428571,46.0921659 39.4470046,48.2857143 39.4470046,50.8663594 C39.4470046,51.2718894 39.483871,51.6774194 39.5760369,52.0645161 L32.8663594,55.9354839 C32,56.4331797 31.6866359,57.5576037 32.202765,58.4239631 C32.5345622,59.0138249 33.1612903,59.3456221 33.7880184,59.3456221 C34.1013825,59.3456221 34.4147465,59.2718894 34.6912442,59.1059908 L41.4193548,55.2165899 C42.4516129,56.156682 43.8156682,56.7281106 45.3087558,56.7281106 Z M45.3087558,48.6728111 C46.5253456,48.6728111 47.5023041,49.6497696 47.5023041,50.8663594 C47.5023041,52.0829493 46.5253456,53.0599078 45.3087558,53.0599078 C44.0921659,53.0599078 43.1152074,52.0829493 43.1152074,50.8663594 C43.0967742,49.6682028 44.0921659,48.6728111 45.3087558,48.6728111 Z" id="Shape" fill="#FFCB28"></path>
                        <path d="M61.1797235,38.3317972 C62.1935484,38.3317972 63.0046083,37.5207373 63.0046083,36.5069124 L63.0046083,31.9907834 C63.0046083,30.4792627 62.3410138,29.0599078 61.1797235,28.1198157 C57.7327189,25.281106 54.0276498,23.2165899 52.2949309,22.3133641 L52.2949309,17.7419355 C53.1428571,16.8571429 53.6221198,15.6774194 53.6221198,14.4239631 L53.6221198,7.82488479 C53.6221198,3.5483871 50.1382488,0.064516129 45.8617512,0.064516129 L44.4423963,0.064516129 C40.1658986,0.064516129 36.6820276,3.5483871 36.6820276,7.82488479 L36.6820276,14.4239631 C36.6820276,15.6774194 37.1612903,16.8571429 38.0092166,17.7419355 L38.0092166,22.2949309 C36.2764977,23.1981567 32.5898618,25.2626728 29.124424,28.1013825 C27.9631336,29.0599078 27.2995392,30.4608295 27.2995392,31.9723502 L27.2995392,36.4884793 C27.2995392,37.5023041 28.1105991,38.3133641 29.124424,38.3133641 C30.1382488,38.3133641 30.9493088,37.5023041 30.9493088,36.4884793 L30.9493088,31.9723502 C30.9493088,31.5668203 31.1336406,31.1797235 31.4470046,30.921659 C35.3917051,27.6774194 39.6497696,25.5391705 40.4608295,25.1336406 C41.1981567,24.7834101 41.640553,24.0460829 41.640553,23.235023 L41.640553,16.875576 C41.640553,16.2672811 41.3271889,15.6958525 40.8294931,15.3640553 C40.516129,15.1428571 40.3133641,14.7926267 40.3133641,14.40553 L40.3133641,7.82488479 C40.3133641,5.55760369 42.156682,3.71428571 44.4239631,3.71428571 L45.843318,3.71428571 C48.1105991,3.71428571 49.9539171,5.55760369 49.9539171,7.82488479 L49.9539171,14.40553 C49.9539171,14.7926267 49.7695853,15.1428571 49.437788,15.3640553 C48.921659,15.6958525 48.6267281,16.2672811 48.6267281,16.875576 L48.6267281,23.235023 C48.6267281,24.0460829 49.0875576,24.7834101 49.8064516,25.1336406 C50.6175115,25.5391705 54.8940092,27.6958525 58.8202765,30.921659 C59.1336406,31.1797235 59.3179724,31.5668203 59.3179724,31.9723502 L59.3179724,36.4884793 C59.3548387,37.5207373 60.1843318,38.3317972 61.1797235,38.3317972 Z" id="Shape" fill="#6D7882"></path>
                        <path d="M90.3225806,78.0921659 L90.3225806,73.5760369 C90.3225806,72.0645161 89.6589862,70.6451613 88.4976959,69.7050691 C85.0506912,66.8663594 81.3640553,64.8018433 79.6129032,63.8986175 L79.6129032,59.3271889 C80.4608295,58.4423963 80.9400922,57.2626728 80.9400922,56.0092166 L80.9400922,49.4285714 C80.9400922,45.1520737 77.4562212,41.6682028 73.1797235,41.6682028 L71.7603687,41.6682028 C67.483871,41.6682028 64,45.1520737 64,49.4285714 L64,56.0276498 C64,57.281106 64.4792627,58.4608295 65.3271889,59.3456221 L65.3271889,63.9170507 C63.59447,64.8202765 59.9078341,66.8847926 56.4423963,69.7235023 C55.281106,70.6820276 54.6175115,72.0829493 54.6175115,73.59447 L54.6175115,78.1105991 C54.6175115,79.124424 55.4285714,79.9354839 56.4423963,79.9354839 C57.4562212,79.9354839 58.2672811,79.124424 58.2672811,78.1105991 L58.2672811,73.59447 C58.2672811,73.1889401 58.4516129,72.8018433 58.764977,72.5437788 C62.7096774,69.2995392 66.9677419,67.1612903 67.7788018,66.7557604 C68.4976959,66.40553 68.9769585,65.6497696 68.9769585,64.8571429 L68.9769585,58.4976959 C68.9769585,57.8894009 68.6635945,57.3179724 68.1658986,56.9861751 C67.8525346,56.764977 67.6497696,56.4147465 67.6497696,56.0276498 L67.6497696,49.4285714 C67.6497696,47.1612903 69.4930876,45.3179724 71.7603687,45.3179724 L73.1797235,45.3179724 C75.4470046,45.3179724 77.2903226,47.1612903 77.2903226,49.4285714 L77.2903226,56.0092166 C77.2903226,56.3963134 77.1059908,56.7465438 76.7741935,56.9677419 C76.2580645,57.2995392 75.9631336,57.8709677 75.9631336,58.4792627 L75.9631336,64.8387097 C75.9631336,65.6497696 76.4239631,66.3870968 77.1428571,66.7373272 C77.9539171,67.1428571 82.2304147,69.2995392 86.156682,72.5253456 C86.4700461,72.7834101 86.6543779,73.1705069 86.6543779,73.5760369 L86.6543779,78.0921659 C86.6543779,79.1059908 87.4654378,79.9170507 88.4792627,79.9170507 C89.5115207,79.9170507 90.3225806,79.1059908 90.3225806,78.0921659 Z" id="Shape" fill="#6D7882"></path>
                        <path d="M33.8617512,79.9170507 C34.875576,79.9170507 35.6866359,79.1059908 35.6866359,78.0921659 L35.6866359,73.5760369 C35.6866359,72.0645161 35.0230415,70.6451613 33.8617512,69.7050691 C30.4147465,66.8663594 26.7281106,64.8018433 24.9769585,63.8986175 L24.9769585,59.3271889 C25.8248848,58.4423963 26.3041475,57.2626728 26.3041475,56.0092166 L26.3041475,49.4285714 C26.3041475,45.1520737 22.8202765,41.6682028 18.5437788,41.6682028 L17.1428571,41.6682028 C12.8663594,41.6682028 9.38248848,45.1520737 9.38248848,49.4285714 L9.38248848,56.0276498 C9.38248848,57.281106 9.86175115,58.4608295 10.7096774,59.3456221 L10.7096774,63.9170507 C8.97695853,64.8202765 5.29032258,66.8847926 1.82488479,69.7235023 C0.66359447,70.6820276 0,72.0829493 0,73.59447 L0,78.1105991 C0,79.124424 0.811059908,79.9354839 1.82488479,79.9354839 C2.83870968,79.9354839 3.64976959,79.124424 3.64976959,78.1105991 L3.64976959,73.59447 C3.64976959,73.1889401 3.83410138,72.8018433 4.14746544,72.5437788 C8.07373272,69.3179724 12.3502304,67.1612903 13.1612903,66.7557604 C13.8801843,66.40553 14.359447,65.6497696 14.359447,64.8571429 L14.359447,58.4976959 C14.359447,57.8894009 14.0460829,57.3179724 13.5483871,56.9861751 C13.235023,56.764977 13.0322581,56.4147465 13.0322581,56.0276498 L13.0322581,49.4285714 C13.0322581,47.1612903 14.875576,45.3179724 17.1428571,45.3179724 L18.562212,45.3179724 C20.8294931,45.3179724 22.6728111,47.1612903 22.6728111,49.4285714 L22.6728111,56.0092166 C22.6728111,56.3963134 22.4884793,56.7465438 22.156682,56.9677419 C21.640553,57.2995392 21.3456221,57.8709677 21.3456221,58.4792627 L21.3456221,64.8387097 C21.3456221,65.6497696 21.8064516,66.3870968 22.5253456,66.7373272 C23.3364055,67.1428571 27.6129032,69.2995392 31.5391705,72.5253456 C31.8525346,72.7834101 32.0368664,73.1705069 32.0368664,73.5760369 L32.0368664,78.0921659 C32.0368664,79.1059908 32.8663594,79.9170507 33.8617512,79.9170507 Z" id="Shape" fill="#6D7882"></path>
                    </g>
                </g>
            </g>
        </g>
    </g>
</svg>