<?xml version="1.0" encoding="UTF-8"?>
<svg width="71px" height="80px" viewBox="0 0 71 80" version="1.1" xmlns="http://www.w3.org/2000/svg" xmlns:xlink="http://www.w3.org/1999/xlink">
    <!-- Generator: Sketch 50.2 (55047) - http://www.bohemiancoding.com/sketch -->
    <title>006-settings</title>
    <desc>Created with Sketch.</desc>
    <defs></defs>
    <g id="Design" stroke="none" stroke-width="1" fill="none" fill-rule="evenodd">
        <g id="Product" transform="translate(-841.000000, -3584.000000)" fill-rule="nonzero">
            <g id="4.1-new" transform="translate(352.000000, 2966.000000)">
                <g id="6" transform="translate(392.000000, 570.000000)">
                    <g id="006-settings" transform="translate(97.000000, 48.000000)">
                        <path d="M0.0506288032,39.9229209 C0.0506288032,40.8154158 0.764624746,41.5294118 1.65711968,41.5294118 C2.5496146,41.5294118 3.26361055,40.8154158 3.26361055,39.9229209 C3.26361055,22.5760649 17.2514402,8.42596349 34.5333874,8.15010142 L32.3427181,10.3407708 C31.709858,10.9736308 31.709858,11.979716 32.3427181,12.6125761 C32.6510345,12.9208925 33.0729412,13.0831643 33.4786207,13.0831643 C33.8843002,13.0831643 34.3062069,12.9208925 34.6145233,12.6125761 L39.5475862,7.67951318 C40.1804462,7.04665314 40.1804462,6.04056795 39.5475862,5.40770791 L34.6145233,0.47464503 C33.9816633,-0.15821501 32.9755781,-0.15821501 32.3427181,0.47464503 C31.709858,1.10750507 31.709858,2.11359026 32.3427181,2.7464503 L34.5496146,4.95334686 C15.4826775,5.19675456 0.0506288032,20.7910751 0.0506288032,39.9229209 Z" id="Shape" fill="#FFCB28"></path>
                        <path d="M68.448357,38.31643 C67.5558621,38.31643 66.8418661,39.030426 66.8418661,39.9229209 C66.8418661,57.2697769 52.8540365,71.4198783 35.5720892,71.6957404 L37.7627586,69.505071 C38.3956187,68.872211 38.3956187,67.8661258 37.7627586,67.2332657 C37.1298986,66.6004057 36.1238134,66.6004057 35.4909533,67.2332657 L30.5578905,72.1663286 C30.249574,72.474645 30.0873022,72.8803245 30.0873022,73.3022312 C30.0873022,73.7241379 30.249574,74.1298174 30.5578905,74.4381339 L35.4909533,79.3711968 C35.7992698,79.6795132 36.2211765,79.841785 36.626856,79.841785 C37.0325355,79.841785 37.4544422,79.6795132 37.7627586,79.3711968 C38.3956187,78.7383367 38.3956187,77.7322515 37.7627586,77.0993915 L35.5558621,74.8924949 C54.6227992,74.6490872 70.0548479,59.0547667 70.0548479,39.9229209 C70.0546856,39.030426 69.3408519,38.31643 68.448357,38.31643 Z" id="Shape" fill="#FFCB28"></path>
                        <path d="M31.0932252,30.3651116 C28.5455578,31.4198783 26.5496146,33.4158215 25.4948479,35.9634888 C24.4400811,38.5111562 24.4400811,41.3346856 25.4948479,43.8823529 C27.1013387,47.7606491 30.8498174,50.2758621 35.0526572,50.2758621 C36.4157404,50.2758621 37.7463692,50.0162272 39.0120892,49.4807302 C41.5597566,48.4259635 43.5556998,46.4300203 44.6104665,43.8823529 C45.6652333,41.3346856 45.6652333,38.5111562 44.6104665,35.9634888 C43.0039757,32.0851927 39.255497,29.5699797 35.0526572,29.5699797 C33.689574,29.5699797 32.3589452,29.8458418 31.0932252,30.3651116 Z M41.6408925,37.1967546 C42.3711156,38.9655172 42.3711156,40.8965517 41.6408925,42.6653144 C40.9106694,44.4340771 39.5475862,45.7971602 37.7788235,46.5273834 C36.9025558,46.8843813 35.9938337,47.0791075 35.0526572,47.0791075 C32.1479919,47.0791075 29.5678702,45.3427992 28.4644219,42.6653144 C27.7341988,40.8965517 27.7341988,38.9655172 28.4644219,37.1967546 C29.194645,35.4279919 30.5577282,34.0649087 32.3264909,33.3346856 C33.2027586,32.9776876 34.1114807,32.7829615 35.0526572,32.7829615 C37.9412576,32.7829615 40.5376065,34.5192698 41.6408925,37.1967546 Z" id="Shape" fill="#6D7882"></path>
                        <path d="M38.2980933,18.5192698 L37.6327789,20.1257606 C35.9289249,19.8985801 34.1926166,19.8985801 32.4887627,20.1257606 L31.8234483,18.5192698 C31.2717241,17.188641 29.9735497,16.3286004 28.5293306,16.3286004 C28.0587424,16.3286004 27.6043813,16.4259635 27.1662475,16.6044625 L24.1317647,17.8539554 C23.255497,18.2109533 22.5739554,18.9087221 22.2007302,19.7849899 C21.8437323,20.6612576 21.8437323,21.6348884 22.2007302,22.5111562 L22.8660446,24.1176471 C21.5029615,25.1724138 20.2696957,26.3894523 19.2311562,27.7525355 L17.6246653,27.0872211 C17.1865314,26.9087221 16.7321704,26.811359 16.2615822,26.811359 C14.8173631,26.811359 13.5191886,27.6713996 12.9674645,29.0020284 L11.7179716,32.0365112 C11.3609736,32.9127789 11.3609736,33.8864097 11.7179716,34.7626775 C12.0749696,35.6389452 12.7727383,36.3204868 13.6490061,36.693712 L15.255497,37.3590264 C15.0283164,39.0791075 15.0283164,40.7991886 15.255497,42.5030426 L13.6490061,43.168357 C12.7727383,43.525355 12.0911968,44.2231237 11.7179716,45.0993915 C11.3609736,45.9756592 11.3609736,46.9492901 11.7179716,47.8255578 L12.9674645,50.8600406 C13.5191886,52.1906694 14.8173631,53.0507099 16.2615822,53.0507099 C16.7321704,53.0507099 17.1865314,52.9533469 17.6246653,52.7748479 L19.2311562,52.1095335 C20.2859229,53.4726166 21.5029615,54.7058824 22.8660446,55.7444219 L22.2007302,57.3509128 C21.4542799,59.168357 22.3143205,61.2454361 24.1317647,61.9918864 L27.1662475,63.2413793 C27.6043813,63.4198783 28.0587424,63.5172414 28.5293306,63.5172414 C29.9735497,63.5172414 31.2717241,62.6572008 31.8234483,61.326572 L32.4887627,59.7200811 C34.1926166,59.9472617 35.9289249,59.9472617 37.6327789,59.7200811 L38.2980933,61.326572 C38.8498174,62.6572008 40.1479919,63.5172414 41.592211,63.5172414 C42.0627992,63.5172414 42.5171602,63.4198783 42.9552941,63.2413793 L45.9897769,61.9918864 C46.8660446,61.6348884 47.5475862,60.9371197 47.9208114,60.0608519 C48.2778093,59.1845842 48.2778093,58.2109533 47.9208114,57.3346856 L47.255497,55.7281947 C48.6185801,54.673428 49.8518458,53.4563895 50.8903854,52.0933063 L52.4968763,52.7586207 C52.9350101,52.9371197 53.3893712,53.0344828 53.8599594,53.0344828 C55.3041785,53.0344828 56.6023529,52.1744422 57.1540771,50.8438134 L58.40357,47.8093306 C58.760568,46.9330629 58.760568,45.959432 58.40357,45.0831643 C58.046572,44.2068966 57.3488032,43.525355 56.4725355,43.1521298 L54.8660446,42.4868154 C55.0932252,40.7667343 55.0932252,39.0466531 54.8660446,37.3427992 L56.4725355,36.6774848 C57.3488032,36.3204868 58.0303448,35.6227181 58.40357,34.7464503 C58.760568,33.8701826 58.760568,32.8965517 58.40357,32.020284 L57.1540771,28.9858012 C56.6023529,27.6551724 55.3041785,26.7951318 53.8599594,26.7951318 C53.3893712,26.7951318 52.9350101,26.8924949 52.4968763,27.0709939 L50.8903854,27.7363083 C49.8356187,26.3732252 48.6185801,25.1399594 47.255497,24.1014199 L47.9208114,22.494929 C48.2778093,21.6186613 48.2778093,20.6450304 47.9208114,19.7687627 C47.5638134,18.8924949 46.8660446,18.2109533 45.9897769,17.8377282 L42.9552941,16.5882353 C42.5171602,16.4097363 42.0627992,16.3123732 41.592211,16.3123732 C40.1479919,16.3123732 38.8498174,17.1724138 38.2980933,18.5192698 Z M40.1155375,22.5273834 L41.2676673,19.7363083 C41.3325761,19.5740365 41.4786207,19.525355 41.592211,19.525355 C41.6408925,19.525355 41.6733469,19.5415822 41.7220284,19.5578093 L44.7565112,20.8073022 C44.8701014,20.8559838 44.918783,20.9371197 44.9350101,20.9858012 C44.9674645,21.0507099 44.9836917,21.148073 44.9350101,21.2454361 L43.7828803,24.0365112 C43.4907911,24.7505071 43.7341988,25.5618661 44.3670588,25.9837728 C46.2007302,27.2170385 47.7585396,28.7586207 48.9755781,30.5922921 C49.3974848,31.2251521 50.225071,31.484787 50.9228398,31.1926978 L53.7139148,30.040568 C53.7625963,30.0243408 53.7950507,30.0081136 53.8437323,30.0081136 C53.9573225,30.0081136 54.1033671,30.0567951 54.1682759,30.2190669 L55.4177688,33.2535497 C55.4826775,33.4320487 55.4015416,33.6267748 55.2392698,33.7079108 L52.4481947,34.8600406 C51.7341988,35.1521298 51.3447465,35.8985801 51.4907911,36.6612576 C51.9289249,38.8194726 51.9126978,41.010142 51.4907911,43.1845842 C51.3447465,43.9310345 51.750426,44.693712 52.4481947,44.9858012 L55.2392698,46.137931 C55.35286,46.1866126 55.4015416,46.2677485 55.4177688,46.31643 C55.4502231,46.3813387 55.4664503,46.4787018 55.4177688,46.5760649 L54.1682759,49.6105477 C54.1033671,49.7728195 53.9573225,49.821501 53.8437323,49.821501 C53.7950507,49.821501 53.7625963,49.8052738 53.7139148,49.7890467 L50.9228398,48.6369168 C50.2088438,48.3448276 49.3974848,48.5882353 48.9755781,49.2210953 C47.7423124,51.0547667 46.2007302,52.6125761 44.3670588,53.8296146 C43.7341988,54.2515213 43.4745639,55.0791075 43.7666531,55.7768763 L44.918783,58.5679513 C44.9674645,58.6815416 44.9512373,58.7789047 44.918783,58.8275862 C44.8863286,58.8924949 44.8376471,58.9736308 44.7240568,59.0060852 L41.689574,60.2555781 C41.6408925,60.2718053 41.6084381,60.2880325 41.5597566,60.2880325 C41.4461663,60.2880325 41.3001217,60.2393509 41.235213,60.0770791 L40.0830832,57.2860041 C39.8234483,56.6693712 39.2392698,56.296146 38.6064097,56.296146 C38.5090467,56.296146 38.3954564,56.3123732 38.2980933,56.3286004 C36.1561055,56.7505071 33.9329817,56.7505071 31.7747667,56.3286004 C31.0283164,56.1825558 30.2656389,56.5882353 29.9735497,57.2860041 L28.8214199,60.0770791 C28.7565112,60.2393509 28.6104665,60.2880325 28.4968763,60.2880325 C28.4481947,60.2880325 28.4157404,60.2718053 28.3670588,60.2555781 L25.3325761,59.0060852 C25.1540771,58.9411765 25.0729412,58.7302231 25.1540771,58.5517241 L26.3062069,55.7606491 C26.5982961,55.0466531 26.3548884,54.2352941 25.7220284,53.8133874 C23.888357,52.5801217 22.3305477,51.0385396 21.1135091,49.2048682 C20.6916024,48.5720081 19.8640162,48.3123732 19.1662475,48.6044625 L16.3751724,49.7565923 C16.3264909,49.7728195 16.2940365,49.7890467 16.245355,49.7890467 C16.1317647,49.7890467 15.9857201,49.7403651 15.9208114,49.5780933 L14.6713185,46.5436105 C14.6226369,46.4300203 14.6388641,46.3326572 14.6713185,46.2839757 C14.7037728,46.2190669 14.7524544,46.137931 14.8498174,46.1054767 L17.6408925,44.9533469 C18.3548884,44.6612576 18.7443408,43.9148073 18.5982961,43.1521298 C18.1601623,40.9939148 18.1763895,38.8032454 18.5982961,36.6288032 C18.7443408,35.8823529 18.3386613,35.1196755 17.6408925,34.8275862 L14.8498174,33.6754564 C14.7362272,33.6267748 14.6875456,33.5456389 14.6713185,33.4969574 C14.6388641,33.4320487 14.6226369,33.3346856 14.6713185,33.2373225 L15.9208114,30.2028398 C15.9857201,30.040568 16.1317647,29.9918864 16.245355,29.9918864 C16.2940365,29.9918864 16.3264909,30.0081136 16.3751724,30.0243408 L19.1662475,31.1764706 C19.8802434,31.4685598 20.6916024,31.2251521 21.1135091,30.5922921 C22.3467748,28.7586207 23.888357,27.2008114 25.7220284,25.9837728 C26.3548884,25.5618661 26.6145233,24.7342799 26.3224341,24.0365112 L25.1703043,21.2454361 C25.1216227,21.1318458 25.1378499,21.0344828 25.1703043,20.9858012 C25.2027586,20.9208925 25.2514402,20.8397566 25.3650304,20.7910751 L28.3995132,19.5415822 C28.4481947,19.525355 28.4806491,19.5091278 28.5293306,19.5091278 C28.6429209,19.5091278 28.7889655,19.5578093 28.8538742,19.7200811 L30.0060041,22.5111562 C30.2980933,23.2251521 31.0607708,23.6146045 31.8072211,23.4685598 C33.9492089,23.0466531 36.1723327,23.0466531 38.3305477,23.4685598 C39.0607708,23.6308316 39.8234483,23.2413793 40.1155375,22.5273834 Z" id="Shape" fill="#6D7882"></path>
                    </g>
                </g>
            </g>
        </g>
    </g>
</svg>