<?xml version="1.0" encoding="UTF-8"?>
<svg width="80px" height="80px" viewBox="0 0 80 80" version="1.1" xmlns="http://www.w3.org/2000/svg" xmlns:xlink="http://www.w3.org/1999/xlink">
    <!-- Generator: Sketch 50.2 (55047) - http://www.bohemiancoding.com/sketch -->
    <title>003-worldwide</title>
    <desc>Created with Sketch.</desc>
    <defs></defs>
    <g id="Design" stroke="none" stroke-width="1" fill="none" fill-rule="evenodd">
        <g id="Product" transform="translate(-1116.000000, -3168.000000)" fill-rule="nonzero">
            <g id="4.1-new" transform="translate(352.000000, 2966.000000)">
                <g id="3" transform="translate(672.000000, 154.000000)">
                    <g id="003-worldwide" transform="translate(92.000000, 48.000000)">
                        <path d="M13.6879837,14.2657434 C27.8305499,-0.202688391 51.0973523,-0.479674134 65.5657841,13.6628921 L61.4435845,13.7117719 C60.5474542,13.7280652 59.8468432,14.4449695 59.8468432,15.3410998 C59.8631365,16.2209369 60.5800407,16.9378411 61.4598778,16.9378411 L61.4761711,16.9378411 L69.4924644,16.8400815 C70.3885947,16.8237882 71.0892057,16.1068839 71.0892057,15.2107536 L70.991446,7.19446029 C70.9751527,6.29832994 70.2582485,5.58142566 69.3621181,5.59771894 C68.4659878,5.61401222 67.7653768,6.3309165 67.7653768,7.22704684 L67.8142566,11.3492464 C52.0749491,-4.03160896 26.7551935,-3.72203666 11.3743381,12.0172709 C6.04643585,17.4755193 2.39674134,24.28611 0.848879837,31.7321385 C-0.666395112,38.9826477 -0.145010183,46.477556 2.34786151,53.4347862 C2.59226069,54.0865173 3.2114053,54.5101426 3.86313646,54.5101426 C4.04236253,54.5101426 4.22158859,54.477556 4.40081466,54.4123829 C5.23177189,54.1191039 5.67169043,53.190387 5.37841141,52.3431365 C0.604480652,38.9989409 3.78167006,24.4001629 13.6879837,14.2657434 Z" id="Shape" fill="#6D7882"></path>
                        <path d="M12.0423625,68.489776 C19.5535642,75.8217515 29.4435845,79.8461914 39.9201629,79.8461914 C40.0830957,79.8461914 40.2297352,79.8461914 40.392668,79.8461914 C51.0647658,79.7158452 61.0362525,75.4632994 68.4822811,67.8217515 C73.8264766,62.3635031 77.4598778,55.5366191 79.0077393,48.0905906 C80.5230143,40.8400815 80.0016293,33.3451731 77.5087576,26.387943 C77.2154786,25.5569857 76.2867617,25.1170672 75.4395112,25.4103462 C74.608554,25.7036253 74.1686354,26.6323422 74.4619145,27.4795927 C79.2521385,40.8237882 76.0749491,55.4225662 66.1686354,65.5569857 C59.309165,72.5630957 50.1523422,76.489776 40.3437882,76.6038289 C30.5515275,76.7178819 21.296945,73.0030143 14.290835,66.1598371 L18.4130346,66.1109572 C19.309165,66.094664 20.009776,65.3777597 20.009776,64.4816293 C19.9934827,63.6017923 19.2765784,62.884888 18.3967413,62.884888 L18.3804481,62.884888 L10.3641548,62.9826477 C9.94052953,62.9826477 9.53319756,63.1618737 9.22362525,63.471446 C8.93034623,63.7810183 8.76741344,64.1883503 8.76741344,64.6119756 L8.86517312,72.6282688 C8.8814664,73.5081059 9.59837067,74.2250102 10.4782077,74.2250102 L10.494501,74.2250102 C11.3906314,74.2087169 12.0912424,73.4918126 12.0912424,72.5956823 L12.0423625,68.489776 Z" id="Shape" fill="#6D7882"></path>
                        <path d="M62.2419552,30.6567821 C58.6737271,22.070224 50.5922607,16.3675764 41.4028513,15.8136049 C41.2399185,15.7973116 41.0606925,15.7973116 40.8814664,15.7810183 C40.8651731,15.7810183 40.8325866,15.7810183 40.8162933,15.7810183 C40.7185336,15.7810183 40.6207739,15.7647251 40.5230143,15.7647251 C40.506721,15.7647251 40.4904277,15.7647251 40.4741344,15.7647251 C40.2949084,15.7647251 40.1156823,15.7484318 39.9201629,15.7484318 C36.7429735,15.7484318 33.6472505,16.3675764 30.698167,17.5895723 C24.7348269,20.0498574 20.0912424,24.693442 17.6309572,30.6567821 C15.1543788,36.6201222 15.1543788,43.1863136 17.6309572,49.1333605 C21.3784114,58.1924236 30.1441955,64.0580041 39.9527495,64.0580041 C40.0830957,64.0580041 40.1971487,64.0580041 40.3274949,64.0417108 C40.392668,64.0417108 40.4741344,64.0580041 40.5393075,64.0580041 C40.5718941,64.0580041 40.6044807,64.0580041 40.6207739,64.0417108 C40.7674134,64.0417108 40.8977597,64.0254175 41.0443992,64.0254175 C41.093279,64.0254175 41.1421589,64.0254175 41.207332,64.0254175 C41.2562118,64.0254175 41.2887984,64.0254175 41.3376782,64.0091242 C44.0260692,63.8624847 46.6655804,63.2596334 49.1910387,62.2168635 C55.1543788,59.7565784 59.7979633,55.1129939 62.2582485,49.1496538 C64.7185336,43.1863136 64.7348269,36.6201222 62.2582485,30.6730754 C62.2419552,30.6730754 62.2419552,30.6730754 62.2419552,30.6567821 C62.2419552,30.6730754 62.2419552,30.6730754 62.2419552,30.6567821 Z M31.512831,20.7667617 C29.7205703,23.0967006 28.2867617,26.1435438 27.3417515,29.6791853 L21.6879837,29.6791853 C23.8875764,25.7362118 27.309165,22.6241955 31.512831,20.7667617 Z M20.2215886,32.9215479 L26.6411405,32.9215479 C26.2663951,35.1211405 26.0708758,37.4673727 26.0708758,39.9276578 C26.0708758,42.3553564 26.2826884,44.7178819 26.6900204,46.9337678 L20.2215886,46.9337678 C18.5922607,42.3716497 18.5922607,37.4673727 20.2215886,32.9215479 Z M21.6879837,50.1435438 L27.4395112,50.1435438 C28.4496945,53.7443585 29.9812627,56.8563747 31.8549898,59.2351935 C27.5861507,57.4429328 23.985336,54.2820367 21.6879837,50.1435438 Z M38.9099796,60.6038289 C35.5372709,59.6099389 32.5393075,55.5692057 30.8285132,50.1435438 L38.9099796,50.1435438 L38.9099796,60.6038289 Z M38.9099796,46.9174745 L29.997556,46.9174745 C29.5413442,44.7015886 29.296945,42.3390631 29.296945,39.9113646 C29.296945,37.4510794 29.5250509,35.088554 29.9160896,32.9052546 L38.9099796,32.9052546 L38.9099796,46.9174745 Z M38.9099796,29.6954786 L30.6818737,29.6954786 C32.3274949,24.0905906 35.3254582,20.1313238 38.9099796,19.2189002 L38.9099796,29.6954786 Z M58.1849287,29.6791853 L53.704277,29.6791853 C52.8733198,26.567169 51.6839104,23.8461914 50.1849287,21.6628921 C53.4924644,23.5203259 56.2786151,26.27389 58.1849287,29.6791853 Z M42.1360489,19.2026069 C45.7205703,20.1313238 48.7022403,24.0905906 50.3641548,29.6791853 L42.1360489,29.6791853 L42.1360489,19.2026069 Z M42.1360489,32.9215479 L51.1299389,32.9215479 C51.5372709,35.1048473 51.7490835,37.4510794 51.7490835,39.9276578 C51.7490835,42.3553564 51.5046843,44.7178819 51.0484725,46.9337678 L42.1360489,46.9337678 L42.1360489,32.9215479 Z M42.1360489,60.6038289 L42.1360489,50.1435438 L50.2175153,50.1435438 C48.506721,55.5692057 45.5087576,59.6099389 42.1360489,60.6038289 Z M49.8590631,58.3390631 C51.4395112,56.1068839 52.7266802,53.3044399 53.6228106,50.1435438 L58.1849287,50.1435438 C56.2460285,53.6303055 53.3784114,56.4490428 49.8590631,58.3390631 Z M59.6513238,46.9174745 L54.3560081,46.9174745 C54.7633401,44.7015886 54.9751527,42.3553564 54.9751527,39.9113646 C54.9751527,37.4510794 54.7796334,35.1048473 54.404888,32.9052546 L59.6513238,32.9052546 C61.2806517,37.4673727 61.2806517,42.3716497 59.6513238,46.9174745 Z" id="Shape" fill="#FFCB28"></path>
                    </g>
                </g>
            </g>
        </g>
    </g>
</svg>