<?xml version="1.0" encoding="UTF-8"?>
<svg width="74px" height="80px" viewBox="0 0 74 80" version="1.1" xmlns="http://www.w3.org/2000/svg" xmlns:xlink="http://www.w3.org/1999/xlink">
    <!-- Generator: Sketch 50.2 (55047) - http://www.bohemiancoding.com/sketch -->
    <title>002-computer</title>
    <desc>Created with Sketch.</desc>
    <defs></defs>
    <g id="Design" stroke="none" stroke-width="1" fill="none" fill-rule="evenodd">
        <g id="Product" transform="translate(-839.000000, -3168.000000)" fill-rule="nonzero">
            <g id="4.1-new" transform="translate(352.000000, 2966.000000)">
                <g id="2" transform="translate(392.000000, 154.000000)">
                    <g id="002-computer" transform="translate(95.000000, 48.000000)">
                        <path d="M67.1918367,13.9591837 L51.5836735,13.9591837 C50.6857143,13.9591837 49.9673469,14.677551 49.9673469,15.5755102 C49.9673469,16.4734694 50.6857143,17.1918367 51.5836735,17.1918367 L67.1918367,17.1918367 C68.955102,17.1918367 70.3918367,18.6285714 70.3918367,20.3918367 L70.3918367,60.522449 C70.3918367,62.2857143 68.955102,63.722449 67.1918367,63.722449 L6.52244898,63.722449 C4.75918367,63.722449 3.32244898,62.2857143 3.32244898,60.522449 L3.32244898,20.3918367 C3.32244898,18.6285714 4.75918367,17.1918367 6.52244898,17.1918367 L22.3755102,17.1918367 C23.2734694,17.1918367 23.9918367,16.4734694 23.9918367,15.5755102 C23.9918367,14.677551 23.2734694,13.9591837 22.3755102,13.9591837 L6.52244898,13.9591837 C2.97959184,13.9591837 0.0897959184,16.8489796 0.0897959184,20.3918367 L0.0897959184,60.522449 C0.0897959184,64.0653061 2.97959184,66.955102 6.52244898,66.955102 L35.2408163,66.955102 L35.2408163,76.6693878 L21.8204082,76.6693878 C20.922449,76.6693878 20.2040816,77.3877551 20.2040816,78.2857143 C20.2040816,79.1836735 20.922449,79.9020408 21.8204082,79.9020408 L51.877551,79.9020408 C52.7755102,79.9020408 53.4938776,79.1836735 53.4938776,78.2857143 C53.4938776,77.3877551 52.7755102,76.6693878 51.877551,76.6693878 L38.4571429,76.6693878 L38.4571429,66.955102 L67.1755102,66.955102 C70.7183673,66.955102 73.6081633,64.0653061 73.6081633,60.522449 L73.6081633,20.3918367 C73.6244898,16.8489796 70.7346939,13.9591837 67.1918367,13.9591837 Z" id="Shape" fill="#6D7882"></path>
                        <path d="M45.9673469,6.35102041 C45.9673469,2.85714286 43.1265306,0 39.6163265,0 L34.0816327,0 C30.5877551,0 27.7306122,2.84081633 27.7306122,6.35102041 L27.7306122,10.155102 C27.7306122,10.2530612 27.7469388,10.3510204 27.7632653,10.4326531 C27.7469388,10.5306122 27.7306122,10.6122449 27.7306122,10.7102041 L27.7306122,42.2530612 C27.7306122,42.6122449 27.844898,42.955102 28.0571429,43.2326531 L35.5510204,53.077551 C35.8612245,53.4857143 36.3346939,53.7142857 36.8408163,53.7142857 C37.3469388,53.7142857 37.8204082,53.4857143 38.1306122,53.077551 L45.6244898,43.2326531 C45.8367347,42.955102 45.9510204,42.6122449 45.9510204,42.2530612 L45.9510204,10.6612245 C45.9510204,10.5795918 45.9346939,10.4816327 45.9183673,10.4 C45.9346939,10.3183673 45.9510204,10.2367347 45.9510204,10.1387755 L45.9510204,6.35102041 L45.9673469,6.35102041 Z M30.9795918,11.7714286 L35.2408163,11.7714286 L35.2408163,40.4081633 L30.9795918,40.4081633 L30.9795918,11.7714286 Z M36.8571429,49.4367347 L32.4326531,43.6244898 L41.2816327,43.6244898 L36.8571429,49.4367347 Z M42.7346939,40.4081633 L38.4734694,40.4081633 L38.4734694,11.7714286 L42.7346939,11.7714286 L42.7346939,40.4081633 Z M42.7346939,8.53877551 L30.9795918,8.53877551 L30.9795918,6.35102041 C30.9795918,4.63673469 32.3836735,3.23265306 34.0979592,3.23265306 L39.6326531,3.23265306 C41.3469388,3.23265306 42.7510204,4.63673469 42.7510204,6.35102041 L42.7510204,8.53877551 C42.7510204,8.53877551 42.7346939,8.53877551 42.7346939,8.53877551 Z" id="Shape" fill="#FFCB28"></path>
                    </g>
                </g>
            </g>
        </g>
    </g>
</svg>