<?xml version="1.0" encoding="UTF-8"?>
<svg width="24px" height="24px" viewBox="0 0 24 24" version="1.1" xmlns="http://www.w3.org/2000/svg" xmlns:xlink="http://www.w3.org/1999/xlink">
    <!-- Generator: Sketch 50.2 (55047) - http://www.bohemiancoding.com/sketch -->
    <title>ic/location</title>
    <desc>Created with Sketch.</desc>
    <defs></defs>
    <g id="ic/location" stroke="none" stroke-width="1" fill="none" fill-rule="evenodd">
        <g id="002-pin" transform="translate(4.000000, 2.000000)" fill="#FFCB28" fill-rule="nonzero" stroke="#FFCB28" stroke-width="0.5">
            <path d="M7.60155718,0 C3.4243309,0.00428223844 0.0397080292,3.39065693 0.03756691,7.56788321 C0.03756691,11.6321168 7.01372263,19.5075426 7.30958637,19.8384428 C7.4529927,19.9986375 7.69912409,20.0122141 7.85931873,19.8688078 C7.86997567,19.8592701 7.88009732,19.8491484 7.8896837,19.8384428 C8.18554745,19.5036496 15.1617032,11.6321168 15.1617032,7.56788321 C15.1595134,3.39216545 11.7772263,0.00642335766 7.60155718,0 Z M7.60155718,18.9858881 C6.27017032,17.4287105 0.816155718,10.8924574 0.816155718,7.56399027 C0.816155718,3.81649635 3.85406326,0.778588808 7.60155718,0.778588808 C11.3490511,0.778588808 14.3869586,3.81649635 14.3869586,7.56399027 C14.3869586,10.8924574 8.93294404,17.4364964 7.60155718,18.9858881 Z" id="Shape"></path>
            <path d="M7.73781022,3.79562044 C5.47386861,3.79776156 3.64029197,5.63484185 3.64243309,7.89878345 C3.64457421,10.1627251 5.4816545,11.9963017 7.74559611,11.9941606 C10.0080292,11.9920195 11.8409732,10.1573236 11.8409732,7.89489051 C11.836691,5.63119221 10.0015085,3.79776156 7.73781022,3.79562044 Z M7.73781022,11.2194647 C5.90384428,11.2194647 4.41712895,9.73274939 4.41712895,7.89878345 C4.41712895,6.06481752 5.90384428,4.57810219 7.73781022,4.57810219 C9.57177616,4.57810219 11.0584915,6.06481752 11.0584915,7.89878345 C11.0563504,9.73187348 9.57085158,11.2173236 7.73781022,11.2194647 Z" id="Shape"></path>
        </g>
    </g>
</svg>