<?xml version="1.0" encoding="UTF-8"?>
<svg width="89px" height="80px" viewBox="0 0 89 80" version="1.1" xmlns="http://www.w3.org/2000/svg" xmlns:xlink="http://www.w3.org/1999/xlink">
    <!-- Generator: Sketch 53.2 (72643) - https://sketchapp.com -->
    <title>air-balloon</title>
    <desc>Created with Sketch.</desc>
    <g id="Design" stroke="none" stroke-width="1" fill="none" fill-rule="evenodd">
        <g id="Pricing" transform="translate(-760.000000, -1152.000000)" fill="#904BF1" fill-rule="nonzero">
            <g id="pricing" transform="translate(352.000000, 916.000000)">
                <g id="white-4" transform="translate(0.000000, 132.000000)">
                    <g id="2" transform="translate(312.000000, 0.000000)">
                        <g id="air-balloon" transform="translate(96.000000, 104.000000)">
                            <path d="M55.6129032,67.0967742 C56.3267389,67.0967742 56.9032258,66.5202873 56.9032258,65.8064516 L56.9032258,60.8530745 L63.4644658,41.1687248 L63.4619455,41.1674647 C67.4488406,35.9356098 69.8064516,29.4128024 69.8064516,23.2258065 C69.8064516,9.76751516 58.9533771,0 44,0 C29.0466229,0 18.1935484,9.76751516 18.1935484,23.2258065 C18.1935484,29.4128024 20.5511594,35.9356098 24.5380545,41.1687248 L24.5355342,41.1706148 L31.0967742,60.8530745 L31.0967742,65.8064516 C31.0967742,66.5202873 31.6732611,67.0967742 32.3870968,67.0967742 L33.6774194,67.0967742 L33.6774194,72.2580645 L32.3870968,72.2580645 C31.6732611,72.2580645 31.0967742,72.8345515 31.0967742,73.5483871 L31.0967742,78.7096774 C31.0967742,79.4235131 31.6732611,80 32.3870968,80 L55.6129032,80 C56.3267389,80 56.9032258,79.4235131 56.9032258,78.7096774 L56.9032258,73.5483871 C56.9032258,72.8345515 56.3267389,72.2580645 55.6129032,72.2580645 L54.3225806,72.2580645 L54.3225806,67.0967742 L55.6129032,67.0967742 Z M54.3225806,64.516129 L33.6774194,64.516129 L33.6774194,61.9354839 L54.3225806,61.9354839 L54.3225806,64.516129 Z M28.751134,45.6565019 C32.6466734,49.0152469 37.4141885,51.2569305 42.7096774,51.5713206 L42.7096774,59.3548387 L33.3164063,59.3548387 L28.751134,45.6565019 Z M54.6835937,59.3548387 L45.2903226,59.3548387 L45.2903226,51.5713206 C50.5858115,51.2569305 55.3533266,49.0152469 59.248866,45.6565019 L54.6835937,59.3548387 Z M44,2.58064516 C57.6750252,2.58064516 67.2258065,11.0698084 67.2258065,23.2258065 C67.2258065,35.0100806 57.9301916,48.1432711 45.2903226,48.9868952 L45.2903226,46.4516129 L42.7096774,46.4516129 L42.7096774,48.9868952 C30.0698084,48.1432711 20.7741935,35.0100806 20.7741935,23.2258065 C20.7741935,11.0698084 30.3249748,2.58064516 44,2.58064516 Z M54.3225806,77.4193548 L33.6774194,77.4193548 L33.6774194,74.8387097 L54.3225806,74.8387097 L54.3225806,77.4193548 Z M51.7419355,72.2580645 L36.2580645,72.2580645 L36.2580645,67.0967742 L51.7419355,67.0967742 L51.7419355,72.2580645 Z" id="Shape"></path>
                            <path d="M62.0645161,23.2258065 L64.6451613,23.2258065 C64.6451613,12.5894658 56.1559981,5.16129032 44,5.16129032 L44,7.74193548 C52.9925655,7.74193548 62.0645161,12.5302419 62.0645161,23.2258065 Z" id="Path"></path>
                            <path d="M84.2280745,49.2362652 C83.1702369,46.1496976 80.236139,44 76.9032258,44 C73.5558216,44 70.6771674,46.1125252 69.6155494,49.1833418 C66.6077369,48.9029739 64,51.3248487 64,54.3225806 C64,57.1691029 66.3147681,59.483871 69.1612903,59.483871 C70.4516129,59.483871 71.6631805,59.0075605 72.5962702,58.1664566 C74.8889869,59.7138356 78.0102066,59.8978074 80.4736644,58.6037047 C81.3185484,59.1770413 82.3121219,59.483871 83.3548387,59.483871 C86.201361,59.483871 88.516129,57.1691029 88.516129,54.3225806 C88.516129,51.7728074 86.6606603,49.6514616 84.2280745,49.2362652 L84.2280745,49.2362652 Z M83.3548387,56.9032258 C82.6580142,56.9032258 82.0040323,56.6272681 81.5119708,56.123866 C81.2618448,55.8686997 80.9279234,55.7357611 80.5895918,55.7357611 C80.3331653,55.7357611 80.0748487,55.812626 79.8505545,55.968876 C77.8684476,57.3537047 75.0660282,57.125 73.3252268,55.4490927 C73.046749,55.1794355 72.6655745,55.0502773 72.2736895,55.0969002 C71.8874748,55.1447832 71.5447329,55.3627773 71.3368195,55.6916582 C70.859249,56.4489668 70.0464969,56.9032258 69.1612903,56.9032258 C67.7380292,56.9032258 66.5806452,55.7458418 66.5806452,54.3225806 C66.5806452,52.59501 68.3378276,51.2435735 70.0861895,51.9240171 C70.4478326,52.0645161 70.8567289,52.0349042 71.1963206,51.8414819 C71.5352823,51.6493195 71.7665071,51.3109879 71.828251,50.9266632 C72.2308468,48.4077621 74.3654234,46.5806452 76.9032258,46.5806452 C79.3509324,46.5806452 81.4785787,48.3214466 81.9611895,50.71875 C82.0827873,51.3223287 82.6139113,51.7545363 83.2256805,51.7545363 C83.2697832,51.7545363 83.3327873,51.7507561 83.4065019,51.7419355 C84.8051916,51.7690273 85.9354839,52.9163306 85.9354839,54.3225806 C85.9354839,55.7458418 84.7780998,56.9032258 83.3548387,56.9032258 L83.3548387,56.9032258 Z" id="Shape"></path>
                            <path d="M20.2280745,57.2362652 C19.1702369,54.1496976 16.236139,52 12.9032258,52 C9.55582161,52 6.67716742,54.1125252 5.61554935,57.1833418 C2.60773694,56.9054939 -7.10542736e-15,59.3248487 -7.10542736e-15,62.3225806 C-7.10542736e-15,65.1691029 2.31476806,67.483871 5.16129032,67.483871 C6.4516129,67.483871 7.66318048,67.0075605 8.59627016,66.1664566 C10.8902469,67.7138356 14.0089466,67.8978074 16.4736644,66.6037047 C17.3185484,67.1770413 18.3121219,67.483871 19.3548387,67.483871 C22.201361,67.483871 24.516129,65.1691029 24.516129,62.3225806 C24.516129,59.7728074 22.6606603,57.6514616 20.2280745,57.2362652 L20.2280745,57.2362652 Z M19.3548387,64.9032258 C18.6580142,64.9032258 18.0040323,64.6272681 17.5119708,64.123866 C17.2618448,63.8686997 16.9279234,63.7357611 16.5895918,63.7357611 C16.3331653,63.7357611 16.0748487,63.812626 15.8505545,63.968876 C13.8684476,65.3537047 11.0660282,65.125 9.32522677,63.4490927 C9.04674903,63.1794355 8.66683468,63.0515373 8.27368952,63.0969002 C7.88747484,63.1447832 7.5447329,63.3627773 7.33681952,63.6916582 C6.85924903,64.4489668 6.04649694,64.9032258 5.16129032,64.9032258 C3.73802919,64.9032258 2.58064516,63.7458418 2.58064516,62.3225806 C2.58064516,60.59501 4.33656758,59.2435735 6.08618952,59.9240171 C6.44783258,60.0645161 6.85798887,60.0361644 7.19632065,59.8414819 C7.53528226,59.6493195 7.7665071,59.3109879 7.82825097,58.9266632 C8.23084677,56.4077621 10.3654234,54.5806452 12.9032258,54.5806452 C15.3509324,54.5806452 17.4785787,56.3214466 17.9611895,58.71875 C18.0827873,59.3223287 18.6139113,59.7545363 19.2256805,59.7545363 C19.2697832,59.7545363 19.3327873,59.7507561 19.4065019,59.7419355 C20.8051916,59.7690273 21.9354839,60.9163306 21.9354839,62.3225806 C21.9354839,63.7458418 20.7780998,64.9032258 19.3548387,64.9032258 L19.3548387,64.9032258 Z" id="Shape"></path>
                        </g>
                    </g>
                </g>
            </g>
        </g>
    </g>
</svg>