<?xml version="1.0" encoding="UTF-8"?>
<svg width="81px" height="81px" viewBox="0 0 81 81" version="1.1" xmlns="http://www.w3.org/2000/svg" xmlns:xlink="http://www.w3.org/1999/xlink">
    <!-- Generator: Sketch 53.2 (72643) - https://sketchapp.com -->
    <title>002-airplane</title>
    <desc>Created with Sketch.</desc>
    <g id="Design" stroke="none" stroke-width="1" fill="none" fill-rule="evenodd">
        <g id="Pricing" transform="translate(-1076.000000, -1160.000000)" fill="#904BF1" fill-rule="nonzero">
            <g id="pricing" transform="translate(352.000000, 916.000000)">
                <g id="white-4" transform="translate(0.000000, 132.000000)">
                    <g id="3" transform="translate(624.000000, 0.000000)">
                        <g id="002-airplane" transform="translate(100.000000, 113.000000)">
                            <path d="M76.3596491,49.7733918 L78.6440059,47.4896443 C80.0816278,46.0514133 80.0816278,43.7116228 78.6440059,42.2733918 C77.9471248,41.5771198 77.0211989,41.193348 76.035575,41.193348 C75.2960527,41.193348 74.589425,41.4096003 73.9887914,41.8122564 L73.5075537,40.1967593 L75.9801413,37.7235624 C77.4183722,36.2853315 77.4183722,33.9455409 75.9801413,32.5079191 C74.6564327,31.1836014 72.5694444,31.0818713 71.1239035,32.1960282 L68.1938353,22.3592836 C69.3640351,21.2323343 70.4848928,20.1358431 71.5411793,19.0795565 C74.5851609,16.0349659 77.0601853,12.8131091 78.5105995,10.0060915 C80.9612572,5.26193965 79.9354289,2.72599906 78.6433966,1.43396678 C77.3519736,0.141934659 74.8160331,-0.883284522 70.0712719,1.56737326 C67.2648636,3.01717832 64.0423977,5.49220273 60.9984162,8.53679345 C59.9421296,9.59307992 58.8450292,10.7133285 57.7186891,11.8835283 L47.8813352,8.95345996 C48.9954922,7.50852834 48.8937622,5.42153996 47.5700536,4.0972223 C46.1318225,2.65960047 43.7920321,2.65899119 42.3544103,4.0972223 L39.8812134,6.57041903 L38.2651072,6.08918129 C38.6677631,5.48793856 38.8840156,4.78131088 38.8840156,4.04178854 C38.8840156,3.0567738 38.5002436,2.13023875 37.8039718,1.43396678 C36.3663499,-0.00426414035 34.0259503,-0.00426414035 32.5883284,1.43396678 L30.3045809,3.71771446 L18.6641082,0.250365536 C18.2492691,0.127314776 17.800926,0.240618947 17.4957358,0.54641809 L14.4992689,3.54288499 C13.9961014,4.04544343 14.0625,4.90497076 14.6363304,5.3246832 L44.0064571,26.8226121 C37.3842592,34.2891081 31.0051169,41.7647417 26.5015838,47.1058723 L17.8624513,43.7828947 C17.4281188,43.6159844 16.9365254,43.7201511 16.607578,44.0490985 L13.0561647,47.6005117 C12.5968568,48.0604288 12.5968568,48.8054338 13.0561647,49.2647417 L30.8126219,67.0211989 C31.2658383,67.4750244 32.0236354,67.4750244 32.4774611,67.0211989 L36.0282651,63.4703947 C36.3572125,63.1414473 36.4619883,62.6492446 36.2944688,62.2149123 L32.9721004,53.5763889 C38.313231,49.0728558 45.7882554,42.6937135 53.2553606,36.0709065 L55.5884504,39.2592593 C56.0026804,39.8251705 56.8427144,39.8982699 57.3507554,39.4158138 C57.7741227,39.013767 57.8326023,38.3394249 57.4884259,37.8691521 L55.0219298,34.4992689 C58.926657,31.0142543 62.7826511,27.4981725 66.2810673,24.1849416 L77.3708577,61.4138645 L75.8412524,62.9428607 L60.5994152,42.1192739 C60.2156432,41.5947855 59.4791666,41.4808724 58.9546784,41.8646442 C58.429581,42.2490253 58.3156677,42.9855019 58.7000487,43.5099902 L74.7532895,65.4416423 C75.1730019,66.0154727 76.0325293,66.0818713 76.5350877,65.5787038 L79.5315546,62.5822369 C79.8373538,62.2770467 79.9506579,61.8280945 79.8276072,61.4138645 L76.3596491,49.7733918 Z M44.0192496,5.76206144 C44.533382,5.24792889 45.3916911,5.24792889 45.9058236,5.76206144 C46.4260477,6.28228554 46.4260477,7.12841138 45.9058236,7.64863548 L45.353923,8.20053614 L42.4463938,7.33430799 L44.0192496,5.76206144 Z M34.2531677,3.09880608 C34.7727827,2.57858183 35.6195175,2.57858183 36.1397418,3.09880608 C36.6599658,3.61903018 36.6599658,4.46515587 36.1397418,4.98538012 L35.7766813,5.34783142 L32.8697612,4.48221255 L34.2531677,3.09880608 Z M17.1345029,4.23611103 L18.6641082,2.70711501 L55.8930311,13.7962963 C52.5798002,17.2953216 49.0637184,21.1513157 45.5780945,25.0560429 L17.1345029,4.23611103 Z M17.7314815,46.2548733 L24.8982699,49.0113304 C23.1006335,51.151925 21.7221004,52.8082358 20.9088694,53.7883772 L15.5531189,48.4326267 L17.7314815,46.2548733 Z M22.5810185,55.4605263 C26.6843323,50.5098684 48.3735379,24.4907407 62.6632554,10.2010233 C65.4982943,7.36537528 68.5928362,4.98111595 71.151925,3.65923493 C73.0732212,2.66630113 75.643884,1.76352343 76.9791666,3.09880608 C78.3144493,4.43408873 77.4110625,7.0047515 76.4187378,8.92604772 C75.0968568,11.4851365 72.7119883,14.5790692 69.8763401,17.4147173 C55.5878411,31.7032164 29.5681043,53.3930311 24.6174464,57.4969542 L22.5810185,55.4605263 Z M33.8230994,62.3464912 L31.645346,64.5242447 L26.2895955,59.1684942 C27.2691276,58.3558723 28.9260477,56.9773393 31.0666423,55.1797028 L33.8230994,62.3464912 Z M75.0925926,43.938231 C75.6128168,43.4180069 76.4589425,43.4180069 76.9791666,43.938231 C77.4993909,44.4584552 77.4993909,45.3045809 76.9791666,45.824805 L75.5957602,47.2082115 L74.7295322,44.3012914 L75.0925926,43.938231 Z M72.4293372,34.1721491 C72.9489522,33.651925 73.7956872,33.6525341 74.3159113,34.1721491 C74.8300438,34.6862816 74.8300438,35.5445907 74.3159113,36.0587231 L72.7430556,37.6315789 L71.8768274,34.7240497 L72.4293372,34.1721491 Z" id="Shape" stroke="#904BF1" stroke-width="0.4"></path>
                            <path d="M70.8120126,67.8679337 L60.7675439,77.9124025 C60.3393031,78.3412524 60.3106726,79.0490985 60.7048002,79.5096248 C61.1452242,80.0237573 61.9535819,80.0560429 62.432383,79.5772416 L72.4768518,69.5327729 C72.936769,69.0728558 72.936769,68.3278509 72.4768518,67.8679337 C72.0175439,67.4086257 71.2719298,67.4086257 70.8120126,67.8679337 L70.8120126,67.8679337 Z" id="Shape"></path>
                            <path d="M67.4543128,64.5102339 C67.91423,64.0509258 67.91423,63.3053118 67.4543128,62.8460039 C66.9950049,62.3860867 66.2493909,62.3860867 65.7900828,62.8460039 L59.5120614,69.1234161 C59.0838207,69.552266 59.05519,70.2601121 59.4493177,70.7206384 C59.8897418,71.234771 60.6980993,71.2670565 61.1769006,70.7882554 L67.4543128,64.5102339 Z" id="Shape"></path>
                            <path d="M63.6878656,58.2328217 C64.1477826,57.7729045 64.1477826,57.0272904 63.6878656,56.5679825 C63.2279484,56.1080653 62.4829435,56.1080653 62.0230263,56.5679825 L57.6285332,60.9624756 C57.2002924,61.3907164 57.1716618,62.0991716 57.5663986,62.5596978 C58.0062135,63.0738305 58.8145712,63.106116 59.2933723,62.6273148 L63.6878656,58.2328217 Z" id="Shape"></path>
                            <path d="M12.210039,8.2285575 C11.7501218,7.76924943 11.0045078,7.76924943 10.5451998,8.2285575 L0.500731072,18.2736356 C0.0408138791,18.7329435 0.0408138791,19.4785575 0.500731072,19.9378654 C0.953947446,20.3910818 1.71174456,20.3910818 2.16557021,19.9378654 L12.210039,9.89339665 C12.6693471,9.43347961 12.6693471,8.6884747 12.210039,8.2285575 Z" id="Shape"></path>
                            <path d="M17.2319688,13.2510965 C16.7720516,12.7911794 16.0270469,12.7911794 15.5677388,13.2510965 L9.28971727,19.529118 C8.86086737,19.9573586 8.832846,20.6652047 9.22697372,21.125731 C9.66739774,21.6398635 10.4751462,21.6721491 10.9539474,21.193348 L17.2319688,14.9159358 C17.691886,14.4560186 17.691886,13.7104045 17.2319688,13.2510965 Z" id="Shape"></path>
                            <path d="M17.4506579,23.0768763 C17.9044834,23.5300926 18.6616716,23.5300926 19.1154971,23.0768763 L23.5099902,18.682383 C23.9692982,18.2224658 23.9692982,17.4774611 23.5099902,17.0175439 C23.0500731,16.5582359 22.3050682,16.5582359 21.845151,17.0175439 L17.4506579,21.4120371 C16.9913499,21.8719542 16.9913499,22.6169591 17.4506579,23.0768763 Z" id="Shape"></path>
                        </g>
                    </g>
                </g>
            </g>
        </g>
    </g>
</svg>