<?xml version="1.0" encoding="UTF-8"?>
<svg width="24px" height="24px" viewBox="0 0 24 24" version="1.1" xmlns="http://www.w3.org/2000/svg" xmlns:xlink="http://www.w3.org/1999/xlink">
    <!-- Generator: Sketch 50.2 (55047) - http://www.bohemiancoding.com/sketch -->
    <title>ic/podcast</title>
    <desc>Created with Sketch.</desc>
    <defs></defs>
    <g id="ic/podcast" stroke="none" stroke-width="1" fill="none" fill-rule="evenodd">
        <g id="Group" transform="translate(2.000000, 2.000000)" fill="#FFFFFF">
            <polygon id="Fill-1" points="6.11503125 19.9479167 13.5724271 19.9479167 9.84378125 13.4895833"></polygon>
            <path d="M11.8229167,9.79166667 C11.8229167,10.8847917 10.9367708,11.7708333 9.84375,11.7708333 C8.750625,11.7708333 7.86458333,10.8847917 7.86458333,9.79166667 C7.86458333,8.69854167 8.750625,7.8125 9.84375,7.8125 C10.9367708,7.8125 11.8229167,8.69854167 11.8229167,9.79166667" id="Fill-2"></path>
            <path d="M15.5729167,9.89583333 C15.5729167,6.73677083 13.0028125,4.16666667 9.84375,4.16666667 C6.6846875,4.16666667 4.11458333,6.73677083 4.11458333,9.89583333 C4.11458333,11.9508333 5.21041667,13.8346875 6.98770833,14.8598958 L7.66479167,13.6873958 C6.3046875,12.9052083 5.46875,11.4717708 5.46875,9.89583333 C5.46875,7.4834375 7.43135417,5.52083333 9.84375,5.52083333 C12.2561458,5.52083333 14.21875,7.4834375 14.21875,9.89583333 C14.21875,11.471875 13.3829167,12.9052083 12.0227083,13.6873958 L12.6997917,14.8598958 C14.4770833,13.8346875 15.5729167,11.9508333 15.5729167,9.89583333" id="Fill-4"></path>
            <path d="M19.6875,9.84375 C19.6875,4.4159375 15.2715625,0 9.84375,0 C4.4159375,0 0,4.4159375 0,9.84375 C0,13.371875 1.89270833,16.6254167 4.953125,18.3840625 L5.63010417,17.2115625 C2.98697917,15.6955208 1.35416667,12.8921875 1.35416667,9.84375 C1.35416667,5.16260417 5.16260417,1.35416667 9.84375,1.35416667 C14.5248958,1.35416667 18.3333333,5.16260417 18.3333333,9.84375 C18.3333333,12.8921875 16.7005208,15.6955208 14.0573958,17.2115625 L14.734375,18.3840625 C17.7947917,16.6254167 19.6875,13.371875 19.6875,9.84375" id="Fill-6"></path>
        </g>
    </g>
</svg>