<svg width="24" height="24" xmlns="http://www.w3.org/2000/svg">
 <!-- Generator: Sketch 50.2 (55047) - http://www.bohemiancoding.com/sketch -->

 <title>ic/search/gray</title>
 <desc>Created with Sketch.</desc>
 <g>
  <title>background</title>
  <rect x="-1" y="-1" width="26" height="26" id="canvas_background" fill="none"/>
 </g>
 <g>
  <title>Layer 1</title>
  <g id="ic/search/gray" fill="none" fill-rule="evenodd">
   <g id="search" fill="#2a3846" fill-rule="nonzero" stroke="#2a3846" stroke-width="0.7">
    <path d="m21.510941,21.348301l-5.60717,-5.831321c1.430189,-1.43434 2.316229,-3.4117 2.316229,-5.59245c0,-4.36981 -3.554719,-7.92453 -7.924529,-7.92453c-4.36981,0 -7.92453,3.55472 -7.92453,7.92453c0,4.36981 3.55472,7.92453 7.92453,7.92453c1.91811,0 3.67849,-0.685659 5.05057,-1.8234l5.620749,5.845661c0.073961,0.07736 0.172831,0.115849 0.272081,0.115849c0.094339,0 0.188299,-0.035089 0.261509,-0.10528c0.15019,-0.144529 0.154711,-0.3834 0.010561,-0.533588zm-11.21547,-4.253962c-3.95358,0 -7.16981,-3.216229 -7.16981,-7.169809c0,-3.95359 3.21623,-7.16981 7.16981,-7.16981c3.953589,0 7.16981,3.21622 7.16981,7.16981c0,3.95358 -3.2166,7.169809 -7.16981,7.169809z" id="Shape"/>
   </g>
  </g>
 </g>
</svg>