<?xml version="1.0" encoding="UTF-8"?>
<svg width="80px" height="80px" viewBox="0 0 80 80" version="1.1" xmlns="http://www.w3.org/2000/svg" xmlns:xlink="http://www.w3.org/1999/xlink">
    <!-- Generator: Sketch 53.2 (72643) - https://sketchapp.com -->
    <title>paper-plane(1)</title>
    <desc>Created with Sketch.</desc>
    <g id="Design" stroke="none" stroke-width="1" fill="none" fill-rule="evenodd">
        <g id="Pricing" transform="translate(-452.000000, -1161.000000)" fill="#904BF1" fill-rule="nonzero">
            <g id="pricing" transform="translate(352.000000, 916.000000)">
                <g id="white-4" transform="translate(0.000000, 132.000000)">
                    <g id="1">
                        <g id="paper-plane(1)" transform="translate(100.000000, 113.000000)">
                            <path d="M79.2117187,0.2053125 C78.724375,-0.0728125 78.125,-0.068125 77.6421875,0.2175 L49.00875,17.149375 C48.2659375,17.5885938 48.0198437,18.5467188 48.4590625,19.2895313 C48.898125,20.0321875 49.85625,20.2782813 50.5992187,19.8392188 L71.1432813,7.6909375 L32.8767188,47.3960938 L13.8442188,41.5732813 L38.6825,26.8857813 C39.4253125,26.4464063 39.6714063,25.4882813 39.2321875,24.7454688 C38.793125,24.0028125 37.8348437,23.7564062 37.0920312,24.1957813 L9.2046875,40.68625 C8.671875,41.0014062 8.37515625,41.60125 8.4484375,42.2160938 C8.52171875,42.8309375 8.9509375,43.344375 9.5428125,43.5254688 L32.2723437,50.4792188 L42.3,68.73125 C42.3104688,68.7501562 42.32125,68.7660937 42.3323438,68.7803125 C42.4996875,69.059375 42.7504688,69.2873437 43.0632813,69.4189062 C43.2590625,69.50125 43.4648438,69.5414062 43.6692187,69.5414062 C44.0696875,69.5414062 44.4639063,69.3873437 44.7615625,69.09625 L56.291875,57.8275 L77.9803125,64.4628125 C78.1303125,64.5085937 78.2842188,64.53125 78.4373437,64.53125 C78.7679687,64.53125 79.0945312,64.42625 79.3667187,64.2248437 C79.765,63.9301563 80,63.4640625 80,62.96875 L80,1.5625 C80,1.00140625 79.6990625,0.48328125 79.2117187,0.2053125 Z M42.3851562,51.4421875 C42.2042187,51.7035938 42.1071875,52.0139062 42.1071875,52.331875 L42.1071875,61.8898438 L35.2598438,49.4265625 L65.56,17.9875 L42.3851562,51.4421875 Z M45.2321875,64.2670313 L45.2321875,54.4440625 L52.886875,56.7859375 L45.2321875,64.2670313 Z M76.875,60.8567187 L46.1720312,51.4635938 L76.875,7.14125 L76.875,60.8567187 Z" id="Shape"></path>
                            <path d="M25.6910937,54.3089062 C25.0807812,53.69875 24.0917187,53.69875 23.48125,54.3089062 L8.895,68.8951562 C8.28484375,69.5053125 8.28484375,70.4946875 8.895,71.105 C9.2003125,71.41 9.60015625,71.5625 10,71.5625 C10.3998437,71.5625 10.7996875,71.41 11.1048437,71.1048437 L25.6910937,56.5185937 C26.30125,55.9085937 26.30125,54.9192187 25.6910937,54.3089062 Z" id="Shape"></path>
                            <path d="M6.26109375,73.73875 C5.65078125,73.1289062 4.66171875,73.1289062 4.05140625,73.7389062 L0.45765625,77.3326562 C-0.1525,77.9428125 -0.1525,78.9321875 0.45765625,79.5425 C0.7628125,79.8475 1.16265625,80 1.5625,80 C1.96234375,80 2.3621875,79.8473437 2.66734375,79.5423437 L6.26109375,75.9485937 C6.87125,75.3384375 6.87125,74.3490625 6.26109375,73.73875 Z" id="Shape"></path>
                            <path d="M22.2889062,77.240625 C21.9984375,76.95 21.5953125,76.7828125 21.184375,76.7828125 C20.7717188,76.7828125 20.3703125,76.95 20.0796875,77.240625 C19.7890625,77.53125 19.621875,77.9328125 19.621875,78.3453125 C19.621875,78.75625 19.7889063,79.159375 20.0796875,79.45 C20.3703125,79.740625 20.7734375,79.9078125 21.184375,79.9078125 C21.5953125,79.9078125 21.9984375,79.740625 22.2889062,79.45 C22.5795312,79.159375 22.746875,78.75625 22.746875,78.3453125 C22.746875,77.9328125 22.5796875,77.53125 22.2889062,77.240625 Z" id="Shape"></path>
                            <path d="M33.9142188,65.6148437 C33.304375,65.0046875 32.3153125,65.0046875 31.7045313,65.6148437 L23.9785938,73.340625 C23.3684375,73.9507812 23.3684375,74.9401563 23.9785938,75.5503125 C24.28375,75.8554687 24.6835938,76.0079687 25.0834375,76.0079687 C25.4832813,76.0079687 25.883125,75.8553125 26.1882813,75.5503125 L33.9142188,67.8245312 C34.524375,67.214375 34.524375,66.225 33.9142188,65.6148437 Z" id="Shape"></path>
                            <path d="M60.57875,65.0217188 C59.9684375,64.4117188 58.979375,64.4117188 58.3690625,65.0217188 L50.6221875,72.7685938 C50.0120312,73.37875 50.0120312,74.368125 50.6221875,74.9784375 C50.9273437,75.2834375 51.3271875,75.4360937 51.7270312,75.4360937 C52.126875,75.4360937 52.5267188,75.2834375 52.831875,74.9784375 L60.57875,67.2315625 C61.1889062,66.6214063 61.1889062,65.6320313 60.57875,65.0217188 Z" id="Shape"></path>
                            <path d="M44.296875,21.2984375 C44.00625,21.0078125 43.603125,20.840625 43.1921875,20.840625 C42.78125,20.840625 42.378125,21.0078125 42.0875,21.2984375 C41.7970313,21.5890625 41.6296875,21.9921875 41.6296875,22.4046875 C41.6296875,22.815625 41.796875,23.2171875 42.0875,23.5078125 C42.378125,23.8 42.78125,23.965625 43.1921875,23.965625 C43.603125,23.965625 44.00625,23.8 44.296875,23.5078125 C44.5873438,23.2171875 44.7546875,22.815625 44.7546875,22.4046875 C44.7546875,21.9921875 44.5875,21.5890625 44.296875,21.2984375 Z" id="Shape"></path>
                        </g>
                    </g>
                </g>
            </g>
        </g>
    </g>
</svg>